<?xml version="1.0" encoding="utf-8"?>
<!-- Generator: Adobe Illustrator 23.1.0, SVG Export Plug-In . SVG Version: 6.00 Build 0)  -->
<svg version="1.1" id="Layer_1" xmlns="http://www.w3.org/2000/svg" xmlns:xlink="http://www.w3.org/1999/xlink" x="0px" y="0px"
	 viewBox="0 0 1280 769" style="enable-background:new 0 0 1280 769;" xml:space="preserve">
<style type="text/css">
	.st0{fill:#0E1824;}
	.st1{fill:none;}
	.st2{fill:url(#SVGID_1_);}
	.st3{fill:url(#SVGID_2_);}
	.st4{fill:url(#SVGID_3_);}
	.st5{fill:url(#SVGID_4_);}
	.st6{fill:url(#SVGID_5_);}
	.st7{fill:url(#SVGID_6_);}
	.st8{fill:url(#SVGID_7_);}
	.st9{fill:url(#SVGID_8_);}
	.st10{fill:url(#SVGID_9_);}
	.st11{fill:url(#SVGID_10_);}
	.st12{fill:url(#SVGID_11_);}
</style>
<rect x="0" class="st0" width="1280" height="769"/>
<g>
	<path class="st1" d="M867.48,492.91c-3.28-1.75-7.14-2.62-11.59-2.62h-14.85v41.04h14.85c4.45,0,8.31-0.87,11.59-2.62
		c3.28-1.75,5.82-4.16,7.64-7.25c1.82-3.09,2.73-6.64,2.73-10.65c0-4.07-0.91-7.63-2.73-10.69
		C873.31,497.06,870.76,494.65,867.48,492.91z"/>
	<path class="st1" d="M700.77,502.92c0-4.02-1.3-7.13-3.91-9.33c-2.61-2.2-6.42-3.3-11.44-3.3h-13.35v25.18h13.35
		c5.02,0,8.84-1.1,11.44-3.3C699.47,509.97,700.77,506.89,700.77,502.92z"/>
	<linearGradient id="SVGID_1_" gradientUnits="userSpaceOnUse" x1="403.9981" y1="630.2508" x2="928.6968" y2="-42.2249">
		<stop  offset="0.0995" style="stop-color:#D4A659"/>
		<stop  offset="0.2322" style="stop-color:#D29D5C"/>
		<stop  offset="0.4528" style="stop-color:#CD8363"/>
		<stop  offset="0.7321" style="stop-color:#C65A6F"/>
		<stop  offset="0.9403" style="stop-color:#BF3779"/>
	</linearGradient>
	<path class="st2" d="M619.78,375.27c5.88,0.07,11.77,0.09,17.65,0.07c0.91,2.85,3.58,4.91,6.74,4.88c3.9-0.04,7.08-3.24,7.09-7.12
		c0.01-3.23-2.19-5.91-5.18-6.72c-0.04-5.38-0.08-10.76-0.13-16.13c3.03-0.8,5.26-3.54,5.24-6.8c-0.03-3.29-2.33-6.06-5.38-6.82
		c-0.06-4.54-0.12-9.08-0.18-13.62c2.55-0.64,4.51-2.71,4.99-5.34c4.81,0.05,9.62,0.13,14.42,0.23c1.01,2.78,3.66,4.8,6.71,4.87
		c3.05,0.06,5.54-1.84,6.3-4.53c4.32,0.13,8.65,0.28,12.97,0.44c0.94,2.3,3.04,4.09,5.53,4.64c0.29,3.85,0.54,7.71,0.75,11.56
		c-2.63,0.46-4.65,2.38-5.2,4.9c-5.71-0.03-11.42-0.05-17.13-0.08c-0.97-2.8-3.69-4.86-6.82-4.88c-3.86-0.03-6.93,3.07-6.87,6.93
		c0.05,3.28,2.37,6.02,5.47,6.75c0.07,5.18,0.11,10.36,0.12,15.54c-3.1,0.79-5.41,3.58-5.42,6.87c-0.01,3.29,2.28,5.99,5.37,6.64
		c-0.05,5.18-0.12,10.36-0.23,15.54c-2.56,0.72-4.59,2.77-5.26,5.33c-4.58,0.18-9.15,0.32-13.73,0.42c-0.72-3.06-3.47-5.3-6.77-5.27
		c-3.88,0.04-7,3.2-6.98,7.1c0.03,3.9,3.15,7.07,6.96,7.02c3.25-0.04,5.98-2.39,6.76-5.49c4.56-0.1,9.12-0.25,13.68-0.44
		c0.68,3.02,3.33,5.16,6.58,4.97c3.81-0.23,7.04-3.55,7.19-7.35c0.12-3.23-2.06-5.8-5.09-6.42c0.12-5.18,0.21-10.35,0.26-15.52
		c3.09-0.85,5.41-3.64,5.43-6.87c0.02-3.23-2.28-5.88-5.37-6.58c-0.01-5.17-0.05-10.34-0.14-15.5c2.67-0.66,4.71-2.81,5.14-5.49
		c5.65,0,11.3,0,16.94,0c0.84,2.97,3.69,5.15,7.02,5.11c3.9-0.04,6.96-3.02,6.78-6.65c-0.15-2.98-2.42-5.52-5.36-6.38
		c-0.23-3.93-0.5-7.86-0.81-11.8c2.79-0.71,4.65-3.14,4.34-6.12c-0.38-3.63-3.75-6.77-7.48-7c-3.36-0.21-5.92,2.1-6.19,5.29
		c-4.13-0.18-8.26-0.34-12.38-0.48c-0.72-3.28-3.67-5.9-7.03-6.02c-3.36-0.12-6.03,2.33-6.43,5.63c-4.74-0.11-9.48-0.2-14.22-0.26
		c-0.87-2.94-3.51-5.13-6.6-5.16c-3.73-0.04-6.78,3.11-6.8,7c-0.01,3.33,2.24,6.11,5.29,6.86c0.05,4.53,0.09,9.06,0.13,13.6
		c-3.06,0.75-5.35,3.52-5.36,6.83c-0.01,3.35,2.34,6.15,5.48,6.86c0.04,5.33,0.08,10.66,0.12,15.99c-2.81,0.61-4.99,2.86-5.49,5.69
		c-5.71,0.02-11.41,0-17.12-0.06c-0.43-2.85-2.56-5.16-5.33-5.86c0-5.34,0.02-10.68,0.08-16.02c3.1-0.74,5.41-3.5,5.45-6.81
		c0.04-3.31-2.2-6.07-5.24-6.81c0.09-4.54,0.2-9.07,0.34-13.6c2.98-0.83,5.22-3.57,5.3-6.83c0.1-3.88-2.84-6.99-6.57-6.92
		c-3.14,0.06-5.9,2.34-6.81,5.35c-6.53,0.13-13.06,0.31-19.6,0.54c-0.18-2.94-2.24-5.18-5.08-5.53c0.42-4.19,0.88-8.37,1.39-12.56
		c2.78-0.53,5.21-2.74,6.16-5.51c3.82-0.26,7.64-0.48,11.45-0.67c0.43,2.98,2.85,5.11,5.95,5c3.1-0.11,5.82-2.44,6.7-5.51
		c3.13-0.1,6.26-0.17,9.4-0.22c0.59,3.05,3.11,5.29,6.21,5.27c3.1-0.02,5.72-2.29,6.44-5.35c3.13,0.01,6.26,0.04,9.39,0.1
		c0.74,3.08,3.37,5.39,6.48,5.47c3.1,0.07,5.61-2.1,6.17-5.12c3.13,0.12,6.26,0.26,9.39,0.42c0.9,3.06,3.63,5.42,6.74,5.59
		c3.65,0.19,6.33-2.67,5.94-6.43c-0.39-3.76-3.59-7.06-7.1-7.32c-2.99-0.22-5.32,1.87-5.81,4.85c-3.1-0.17-6.21-0.32-9.31-0.44
		c-0.84-3.08-3.45-5.46-6.45-5.56c-3-0.1-5.46,2.13-6.11,5.19c-3.1-0.06-6.2-0.09-9.31-0.11c-0.67-3.08-3.16-5.38-6.15-5.36
		c-3,0.02-5.59,2.36-6.41,5.44c-3.1,0.05-6.2,0.13-9.3,0.23c-0.51-3.05-2.86-5.23-5.86-5.09c-3,0.14-5.73,2.56-6.71,5.63
		c-3.78,0.2-7.57,0.44-11.35,0.71c-0.33-2.94-2.54-4.96-5.53-4.68c-3.51,0.33-6.88,3.64-7.47,7.34c-0.45,2.87,0.97,5.17,3.35,5.96
		c-0.57,4.37-1.09,8.74-1.55,13.12c-2.8,1.03-5.05,3.65-5.35,6.62c-0.38,3.7,2.46,6.6,6.28,6.5c3-0.08,5.68-2.04,6.82-4.72
		c6.66-0.21,13.32-0.37,19.97-0.49c0.47,2.59,2.42,4.61,4.99,5.17c-0.15,4.5-0.28,9.01-0.38,13.51c-3.08,0.76-5.43,3.52-5.5,6.8
		c-0.07,3.28,2.18,6.03,5.26,6.8c-0.06,5.33-0.09,10.66-0.09,15.99c-3.1,0.71-5.4,3.42-5.37,6.7c0.03,3.86,3.24,7.07,7.15,7.15
		C616.23,379.92,618.83,378,619.78,375.27z"/>
	<linearGradient id="SVGID_2_" gradientUnits="userSpaceOnUse" x1="483.8014" y1="692.5172" x2="1008.5001" y2="20.0415">
		<stop  offset="0.0995" style="stop-color:#D4A659"/>
		<stop  offset="0.2322" style="stop-color:#D29D5C"/>
		<stop  offset="0.4528" style="stop-color:#CD8363"/>
		<stop  offset="0.7321" style="stop-color:#C65A6F"/>
		<stop  offset="0.9403" style="stop-color:#BF3779"/>
	</linearGradient>
	<polygon class="st3" points="614.1,490.29 631.75,490.29 631.75,535.92 637.06,535.92 637.06,490.29 654.71,490.29 654.71,485.7 
		614.1,485.7 	"/>
	<linearGradient id="SVGID_3_" gradientUnits="userSpaceOnUse" x1="456.2395" y1="671.0121" x2="980.9382" y2="-1.4636">
		<stop  offset="0.0995" style="stop-color:#D4A659"/>
		<stop  offset="0.2322" style="stop-color:#D29D5C"/>
		<stop  offset="0.4528" style="stop-color:#CD8363"/>
		<stop  offset="0.7321" style="stop-color:#C65A6F"/>
		<stop  offset="0.9403" style="stop-color:#BF3779"/>
	</linearGradient>
	<polygon class="st4" points="592.65,505.5 569.9,505.5 569.9,485.7 558.21,485.7 558.21,535.92 569.9,535.92 569.9,515.33 
		592.65,515.33 592.65,535.92 604.27,535.92 604.27,485.7 592.65,485.7 	"/>
	<linearGradient id="SVGID_4_" gradientUnits="userSpaceOnUse" x1="554.9141" y1="748.0029" x2="1079.6128" y2="75.5272">
		<stop  offset="0.0995" style="stop-color:#D4A659"/>
		<stop  offset="0.2322" style="stop-color:#D29D5C"/>
		<stop  offset="0.4528" style="stop-color:#CD8363"/>
		<stop  offset="0.7321" style="stop-color:#C65A6F"/>
		<stop  offset="0.9403" style="stop-color:#BF3779"/>
	</linearGradient>
	<polygon class="st5" points="727.54,512.68 753.51,512.68 753.51,508.15 727.54,508.15 727.54,490.29 756.67,490.29 756.67,485.7 
		722.23,485.7 722.23,535.92 757.74,535.92 757.74,531.33 727.54,531.33 	"/>
	<linearGradient id="SVGID_5_" gradientUnits="userSpaceOnUse" x1="588.987" y1="774.5882" x2="1113.6857" y2="102.1125">
		<stop  offset="0.0995" style="stop-color:#D4A659"/>
		<stop  offset="0.2322" style="stop-color:#D29D5C"/>
		<stop  offset="0.4528" style="stop-color:#CD8363"/>
		<stop  offset="0.7321" style="stop-color:#C65A6F"/>
		<stop  offset="0.9403" style="stop-color:#BF3779"/>
	</linearGradient>
	<polygon class="st6" points="810.55,526.43 778.19,485.7 773.81,485.7 773.81,535.92 779.12,535.92 779.12,495.19 811.41,535.92 
		815.79,535.92 815.79,485.7 810.55,485.7 	"/>
	<linearGradient id="SVGID_6_" gradientUnits="userSpaceOnUse" x1="625.2515" y1="802.8835" x2="1149.9501" y2="130.4078">
		<stop  offset="0.0995" style="stop-color:#D4A659"/>
		<stop  offset="0.2322" style="stop-color:#D29D5C"/>
		<stop  offset="0.4528" style="stop-color:#CD8363"/>
		<stop  offset="0.7321" style="stop-color:#C65A6F"/>
		<stop  offset="0.9403" style="stop-color:#BF3779"/>
	</linearGradient>
	<path class="st7" d="M879.72,497.75c-2.25-3.78-5.39-6.73-9.44-8.86c-4.04-2.13-8.74-3.19-14.1-3.19h-20.45v50.23h20.45
		c5.36,0,10.06-1.06,14.1-3.19c4.04-2.13,7.19-5.08,9.44-8.86c2.25-3.78,3.37-8.13,3.37-13.06S881.96,501.53,879.72,497.75z
		 M875.12,521.46c-1.82,3.09-4.37,5.5-7.64,7.25c-3.28,1.75-7.14,2.62-11.59,2.62h-14.85v-41.04h14.85c4.45,0,8.31,0.87,11.59,2.62
		c3.28,1.75,5.82,4.15,7.64,7.21c1.82,3.06,2.73,6.63,2.73,10.69C877.85,514.83,876.94,518.38,875.12,521.46z"/>
	<linearGradient id="SVGID_7_" gradientUnits="userSpaceOnUse" x1="521.8663" y1="722.2173" x2="1046.5649" y2="49.7416">
		<stop  offset="0.0995" style="stop-color:#D4A659"/>
		<stop  offset="0.2322" style="stop-color:#D29D5C"/>
		<stop  offset="0.4528" style="stop-color:#CD8363"/>
		<stop  offset="0.7321" style="stop-color:#C65A6F"/>
		<stop  offset="0.9403" style="stop-color:#BF3779"/>
	</linearGradient>
	<path class="st8" d="M696.54,517.95c3.06-1.36,5.42-3.32,7.07-5.88c1.65-2.56,2.48-5.61,2.48-9.15c0-3.63-0.82-6.73-2.48-9.29
		c-1.65-2.56-4.01-4.52-7.07-5.88c-3.06-1.36-6.72-2.05-10.98-2.05h-18.8v50.23h5.31v-15.93h13.49c1.42,0,2.76-0.08,4.04-0.23
		l11.45,16.16h5.81l-12.28-17.23C695.26,518.47,695.92,518.23,696.54,517.95z M685.42,515.47h-13.35v-25.18h13.35
		c5.02,0,8.84,1.1,11.44,3.3c2.61,2.2,3.91,5.31,3.91,9.33c0,3.97-1.3,7.06-3.91,9.26C694.25,514.37,690.44,515.47,685.42,515.47z"
		/>
	<linearGradient id="SVGID_8_" gradientUnits="userSpaceOnUse" x1="387.0668" y1="617.0401" x2="911.7654" y2="-55.4356">
		<stop  offset="0.0995" style="stop-color:#D4A659"/>
		<stop  offset="0.2322" style="stop-color:#D29D5C"/>
		<stop  offset="0.4528" style="stop-color:#CD8363"/>
		<stop  offset="0.7321" style="stop-color:#C65A6F"/>
		<stop  offset="0.9403" style="stop-color:#BF3779"/>
	</linearGradient>
	<polygon class="st9" points="462.06,514.97 485.38,514.97 485.38,505.86 462.06,505.86 462.06,495.02 488.46,495.02 488.46,485.7 
		450.51,485.7 450.51,535.92 489.4,535.92 489.4,526.59 462.06,526.59 	"/>
	<linearGradient id="SVGID_9_" gradientUnits="userSpaceOnUse" x1="421.8698" y1="644.1952" x2="946.5685" y2="-28.2805">
		<stop  offset="0.0995" style="stop-color:#D4A659"/>
		<stop  offset="0.2322" style="stop-color:#D29D5C"/>
		<stop  offset="0.4528" style="stop-color:#CD8363"/>
		<stop  offset="0.7321" style="stop-color:#C65A6F"/>
		<stop  offset="0.9403" style="stop-color:#BF3779"/>
	</linearGradient>
	<path class="st10" d="M515.16,499.19c1.43-1.43,3.13-2.55,5.09-3.34c1.96-0.79,4.11-1.18,6.46-1.18c2.49,0,4.79,0.5,6.92,1.51
		c2.13,1,4.03,2.49,5.7,4.45l7.53-6.89c-2.39-2.92-5.36-5.13-8.9-6.64c-3.54-1.51-7.49-2.26-11.84-2.26c-3.87,0-7.47,0.63-10.8,1.9
		c-3.32,1.27-6.22,3.07-8.68,5.42c-2.46,2.34-4.38,5.09-5.74,8.25c-1.36,3.16-2.04,6.63-2.04,10.4s0.68,7.25,2.04,10.4
		c1.36,3.16,3.26,5.91,5.7,8.25c2.44,2.34,5.32,4.15,8.65,5.42c3.32,1.27,6.92,1.9,10.8,1.9c4.4,0,8.37-0.77,11.91-2.3
		c3.54-1.53,6.5-3.75,8.9-6.67l-7.53-6.89c-1.67,1.96-3.58,3.46-5.7,4.48c-2.13,1.03-4.44,1.54-6.92,1.54
		c-2.34,0-4.5-0.39-6.46-1.18c-1.96-0.79-3.66-1.9-5.09-3.34c-1.43-1.43-2.55-3.13-3.34-5.09c-0.79-1.96-1.18-4.14-1.18-6.53
		s0.39-4.57,1.18-6.53C512.61,502.32,513.72,500.62,515.16,499.19z"/>
	<linearGradient id="SVGID_10_" gradientUnits="userSpaceOnUse" x1="350.2728" y1="588.3316" x2="874.9714" y2="-84.1441">
		<stop  offset="0.0995" style="stop-color:#D4A659"/>
		<stop  offset="0.2322" style="stop-color:#D29D5C"/>
		<stop  offset="0.4528" style="stop-color:#CD8363"/>
		<stop  offset="0.7321" style="stop-color:#C65A6F"/>
		<stop  offset="0.9403" style="stop-color:#BF3779"/>
	</linearGradient>
	<polygon class="st11" points="396.91,495.17 412.98,495.17 412.98,535.92 424.61,535.92 424.61,495.17 440.68,495.17 440.68,485.7 
		396.91,485.7 	"/>
	<linearGradient id="SVGID_11_" gradientUnits="userSpaceOnUse" x1="418.9149" y1="461.6991" x2="923.2324" y2="181.8171">
		<stop  offset="0.0669" style="stop-color:#49B2EB"/>
		<stop  offset="0.3959" style="stop-color:#4AACE4"/>
		<stop  offset="0.8801" style="stop-color:#4B9DD0"/>
		<stop  offset="1" style="stop-color:#4C98CA"/>
	</linearGradient>
	<path class="st12" d="M631.12,262.49L631.12,262.49c0.01-1.22,1.06-2.99,3.38-3.1c2.87,0.13,3.76,2.97,2.15,4.65
		C634.71,266.06,631.1,265.04,631.12,262.49z M633.14,236.09c-0.13-0.12-0.31-0.13-0.43-0.14c-0.95,0.05-2,0.82-2.4,1.32
		c-0.58,0.72-0.32,1.29,0.55,1.21C632.32,238.35,633.73,236.65,633.14,236.09z M658,244.56c0.13-1.08-1.78-2.91-3.54-2.99
		c-1.29,0.07-0.97,1.25-0.47,1.98v0C655.27,245.38,657.85,245.82,658,244.56z M654.24,249.45c-1.75,0.09-1.97,1.55-1.57,2.57
		c0.85,2.13,4.12,3,4.92,1.3C658.26,251.92,656.54,249.56,654.24,249.45z M651.53,235.95c-0.74,0.04,0.08,0.82,0.35,1.06
		c0.09,0.08,0.22,0.18,0.32,0.26c1.54,1.19,3.25,1.56,3.16,0.89C655.25,237.39,652.69,236.01,651.53,235.95z M626.38,271.18
		c-0.1-0.01-0.24-0.01-0.35-0.02c-2.61,0.12-3.89,2.16-3.96,3.57c-0.13,2.77,3.44,4.01,5.79,2.01
		C630.17,274.78,629.28,271.46,626.38,271.18z M621.78,243.54c-0.71,1.11-0.16,1.93,1.14,1.69c2.12-0.38,3.69-2.9,2.65-3.53
		c-0.19-0.12-0.37-0.12-0.56-0.14C623.63,241.63,622.27,242.79,621.78,243.54z M614.74,262.49c-0.56,2.32,1.93,3.47,4.24,1.95
		c2.31-1.53,2.42-4.51,0.19-4.99c-0.16-0.03-0.38-0.05-0.55-0.06C616.44,259.5,615.04,261.27,614.74,262.49z M628.08,249.5
		c-0.14-0.03-0.33-0.04-0.47-0.05c-1.85,0.09-3.03,1.55-3.28,2.57c-0.47,1.93,1.75,2.91,3.7,1.63
		C629.94,252.41,629.96,249.89,628.08,249.5z M648.45,262.49c0.59,2.57,4.38,3.58,5.79,1.55c1.17-1.68-0.38-4.52-3.21-4.65
		C648.78,259.5,648.17,261.27,648.45,262.49z M626.88,235.95c-0.82,0.04-2.34,0.73-3.2,1.32c-0.88,0.6-1.14,1.13-0.6,1.21
		c1.21,0.16,4.33-1.97,4.06-2.44C627.09,235.96,626.99,235.96,626.88,235.95z M666.49,259.39c-2.01,0.11-2.15,1.88-1.6,3.1
		c1.14,2.55,4.84,3.57,5.65,1.55C671.21,262.36,669.12,259.52,666.49,259.39z M639.21,235.96c-0.04,0-0.09,0-0.12-0.01
		c-0.95,0.04-1.44,0.8-1.49,1.32c-0.11,1.14,1.41,1.56,2.3,0.89C640.88,237.42,640.28,236.06,639.21,235.96z M666.37,249.45
		c-1.61,0.09-1.18,1.62-0.53,2.57c1.49,2.17,4.65,3.01,4.83,1.3C670.82,251.92,668.5,249.56,666.37,249.45z M616.75,241.7
		c-0.11-0.12-0.26-0.12-0.43-0.14c-1.16,0.06-2.88,1.07-3.82,1.97c-0.99,0.95-1.07,1.73-0.16,1.74
		C614.28,245.28,617.41,242.41,616.75,241.7z M645.13,271.16c-2.7,0.12-3.66,2.16-3.48,3.57c0.39,2.97,4.65,4.11,6.6,1.77
		C649.87,274.57,648.45,271.31,645.13,271.16z M661.1,274.73L661.1,274.73c0.87,2.96,5,4.1,6.41,1.77c1.16-1.93-0.72-5.19-3.83-5.34
		C661.21,271.29,660.68,273.32,661.1,274.73z M678.86,274.73c1.3,2.95,5.18,4.09,6.01,1.77c0.7-1.93-1.57-5.19-4.37-5.34
		C678.34,271.28,678.24,273.32,678.86,274.73z M645.56,235.95c-0.88,0.04-0.72,0.83-0.41,1.32c0.8,1.27,2.74,1.59,2.87,0.71
		C648.15,237.2,646.7,236,645.56,235.95z M640.55,232.82c-0.4,0.02-0.41,0.42-0.35,0.61c0.2,0.66,1.23,0.86,1.44,0.42
		C641.83,233.45,641.1,232.84,640.55,232.82z M643.25,243.54L643.25,243.54c0.44,1.7,3.05,2.39,3.88,1.02
		c0.66-1.08-0.5-2.91-2.33-2.99C643.4,241.63,643.05,242.76,643.25,243.54z M640.97,249.45c-1.92,0.09-2.67,1.55-2.59,2.57
		c0.18,2.15,3.39,3.02,4.83,1.3C644.4,251.92,643.38,249.56,640.97,249.45z M604.86,259.51c-0.24-0.1-0.48-0.11-0.68-0.12
		c-1.98,0.11-3.66,1.88-4.22,3.1c-0.89,1.95,0.36,3.18,2.43,2.39C605.1,263.86,606.74,260.3,604.86,259.51z M604.27,425.43
		c0.13-1.37-2.37-4.21-4.72-4.34c-1.5,0.09-1.18,1.52,0,2.84C601.22,425.82,604.13,426.96,604.27,425.43z M592.63,434.63
		c0-0.01,0-0.03,0-0.04c-0.43-0.39-6.53-3.87-7.14-3.98c0,0.01-0.01,0.03-0.02,0.04c0.28,0.32,1.81,1.29,3.55,2.24
		C590.63,433.77,592.28,434.57,592.63,434.63z M589.42,423.94c1.79,1.67,4.39,2.87,4.44,1.79c0.05-1.15-3.28-4.49-5.4-4.64
		C587.12,421.2,588.21,422.82,589.42,423.94z M595.94,434.59c-0.05-0.46-5.5-3.86-6.74-3.98c-0.04,0.01-0.09,0.02-0.12,0.04
		c-0.03,0.34,1.45,1.39,2.94,2.24h0C593.51,433.75,595.72,434.81,595.94,434.59z M601.38,434.48c-0.04-0.65-4.35-3.75-6.07-3.87
		c-0.77,0.07,0.27,1,0.61,1.29c0.36,0.3,0.87,0.67,1.38,1C599.11,434.04,601.41,435.02,601.38,434.48z M613.24,254.11
		c2.53-0.7,4.09-3.69,2.79-4.48c-0.25-0.15-0.48-0.16-0.73-0.18c-1.73,0.09-3.28,1.55-3.83,2.57
		C610.63,253.55,611.51,254.59,613.24,254.11z M591.16,366.4c-2.78,0.16-3.42,2.72-2.99,4.49c0.86,3.5,5.08,4.84,6.74,2.14
		C596.39,370.63,594.6,366.59,591.16,366.4z M598.35,349.65c-3.02,0.17-3.98,2.88-3.69,4.75c0.57,3.75,5.04,5.17,7.13,2.28
		C603.63,354.14,602.08,349.85,598.35,349.65z M590.34,388.28c1.05-2.27-0.97-5.97-4.11-6.15c-2.47,0.15-2.73,2.52-2.12,4.16
		C585.33,389.59,589.17,390.81,590.34,388.28z M582.84,400.42L582.84,400.42c1.58,2.95,5.06,4.05,5.64,1.79
		c0.53-2.06-1.79-5.41-4.5-5.58C581.86,396.78,582.04,398.93,582.84,400.42z M584.58,413.04c1.85,2.44,4.79,3.49,4.98,1.78
		c0.19-1.62-2.39-4.96-4.89-5.12C582.95,409.82,583.58,411.73,584.58,413.04L584.58,413.04z M585.89,332.25
		c-2.83,0.17-3.9,2.94-3.76,4.85c0.27,3.73,4.05,5.34,6.32,2.69C590.67,337.18,589.58,332.47,585.89,332.25z M684.96,264.25
		c0.43-1.64-2.2-4.72-4.67-4.86c-1.82,0.11-1.33,1.96-0.6,3.1C681.24,264.92,684.5,266.01,684.96,264.25z M592.34,271.16
		c-2.15,0.12-3.85,2.16-4.38,3.57c-0.88,2.37,0.74,3.75,3.06,2.59c2.88-1.44,4.1-5.49,1.84-6.09
		C592.71,271.19,592.5,271.17,592.34,271.16z M604.08,432.48c0.15,0.13,0.35,0.29,0.51,0.41c1.74,1.31,4.16,2.27,4.11,1.41
		c-0.06-0.96-3.26-3.58-5.18-3.7C602.43,430.68,603.26,431.77,604.08,432.48z M608.65,276.96c2.55-1.75,2.68-5.18,0.21-5.73
		c-0.18-0.04-0.43-0.05-0.61-0.06c-2.42,0.12-3.94,2.16-4.25,3.57C603.43,277.35,606.17,278.67,608.65,276.96z M604.35,249.45
		c-1.53,0.09-3.43,1.58-4.23,2.57c-1.08,1.33-0.92,2.33,0.36,2.19c2.39-0.26,5.37-3.71,4.44-4.58
		C604.76,249.48,604.56,249.47,604.35,249.45z M587.22,262.49c-1.1,1.69-0.67,2.92,0.9,2.57c2.58-0.58,5.57-4.67,4.04-5.54
		c-0.17-0.1-0.38-0.11-0.54-0.12C589.9,259.5,588.01,261.27,587.22,262.49z M598.67,409.7c-2.07,0.12-1.87,2.03-1.06,3.35
		c1.59,2.61,4.92,3.56,5.47,1.57C603.59,412.8,601.31,409.84,598.67,409.7z M609.49,388c1.18-2.31-0.63-5.69-4.03-5.86
		c-2.82,0.15-3.42,2.52-2.95,4.16C603.53,389.78,608.02,390.87,609.49,388z M581.74,259.51c-0.1-0.1-0.26-0.11-0.38-0.12
		c-1.38,0.11-3.44,1.91-4.39,3.1c-1.27,1.58-1.4,2.77-0.27,2.61C578.74,264.81,582.7,260.42,581.74,259.51z M595.49,249.55
		c-0.08-0.08-0.22-0.09-0.33-0.1c-1.18,0.08-3.22,1.4-4.45,2.57c-1.26,1.21-1.59,2.2-0.72,2.21
		C591.72,254.24,596.3,250.35,595.49,249.55z M638.85,444.1c0.28,0.82,1.34,0.87,1.69,0.08c0.21-0.48-0.07-1.02-0.84-1.06
		C638.97,443.16,638.69,443.65,638.85,444.1L638.85,444.1z M639.36,433.63c0.73-1.24-0.17-2.93-2.13-3.02
		c-1.67,0.08-2.27,1.23-1.99,2.28C635.74,434.78,638.4,435.25,639.36,433.63z M617.64,434.07c0.07-1.1-2.17-3.36-4.19-3.46
		c-1.46,0.08-0.83,1.39,0.09,2.28C615.06,434.37,617.56,435.28,617.64,434.07z M695.14,271.16c-1.9,0.13-1.43,2.26-0.69,3.57
		c1.59,2.82,4.86,4.04,5.38,2.01C700.31,274.86,697.68,271.32,695.14,271.16z M635.82,414.15c1.01-1.83-0.37-4.32-3.22-4.45
		c-2.4,0.11-3.32,1.81-2.96,3.35C630.33,415.95,634.43,416.68,635.82,414.15z M611.66,423.94c1.49,2.26,4.65,2.99,4.98,1.13
		c0.25-1.41-1.51-3.85-3.99-3.98C610.74,421.2,610.92,422.82,611.66,423.94L611.66,423.94z M623.41,401.96
		c1.21-2.09-0.44-5.16-3.73-5.32c-2.74,0.13-3.37,2.29-2.94,3.78C617.63,403.52,621.93,404.51,623.41,401.96z M630.51,388
		c1.56-2.28-0.09-5.69-3.68-5.86c-3.08,0.15-4.02,2.52-3.71,4.16C623.79,389.77,628.56,390.86,630.51,388z M627.97,433.79
		c0.28-1.13-1.09-3.08-3.17-3.18c-1.49,0.08-1.65,1.22-0.94,2.28C624.95,434.52,627.59,435.34,627.97,433.79z M625.47,439.68
		c1.18,0.99,3.29,1.74,3.13,0.74c-0.13-0.83-1.81-2.33-3.31-2.4c-1,0.05-0.74,0.82,0.01,1.51
		C625.35,439.58,625.42,439.64,625.47,439.68z M630.52,424.87c0.55-1.41-0.66-3.66-3.19-3.78c-2.11,0.1-2.44,1.72-2,2.84
		C626.27,426.32,629.71,426.93,630.52,424.87z M662.18,440.89c0.98,0.22,6.1-2.27,5.77-2.8c-0.04-0.06-0.14-0.06-0.23-0.07
		c-1.23,0.07-3.77,1.5-4.05,1.66C663.21,439.94,661.75,440.8,662.18,440.89z M658.93,443.13c-0.01,0-0.03,0-0.05-0.01
		c-0.36,0.02-0.36,0.02-4.11,0.98v0c-2.43,0.62-2.43,0.62-2.47,0.64C653.03,444.84,658.85,443.42,658.93,443.13z M661.78,443.12
		c-1.55,0.12-3.01,0.65-4.51,0.98l0,0c-1.01,0.22-2.02,0.39-3.03,0.64c0.87,0,6.68-1.18,7.55-1.59
		C661.79,443.14,661.79,443.13,661.78,443.12z M662.55,430.78c-0.22-0.14-0.45-0.16-0.69-0.17c-1.68,0.08-3.05,1.45-3.52,2.28
		c-0.62,1.11-0.29,2.03,1.21,1.65C661.57,434.02,663.8,431.57,662.55,430.78z M673.53,438.06c-0.03-0.02-0.08-0.03-0.12-0.03
		c-0.85,0.06-3.38,1.18-4.42,1.66c-1.97,0.9-2.15,1.09-2.22,1.16c0,0.02,0.01,0.04,0.01,0.05
		C667.57,440.98,673.62,438.68,673.53,438.06z M614.81,409.7c-2.35,0.12-2.59,2.03-2.02,3.35c1.19,2.74,4.92,3.6,5.86,1.35
		C619.43,412.55,617.64,409.84,614.81,409.7z M630.24,444.1c0.96,0.37,2.38,0.75,2.48,0.62c-0.04-0.18-2.68-1.54-3.79-1.6
		c-0.1,0.01-0.36,0.02-0.06,0.28C629.1,443.6,629.61,443.86,630.24,444.1L630.24,444.1z M655.19,443.17
		c-0.03-0.02-0.08-0.04-0.11-0.04c-0.53,0.03-1.69,0.38-3.51,0.98v0c-1.54,0.5-1.67,0.56-1.78,0.62
		C650.09,444.99,654.94,443.59,655.19,443.17z M620.57,443.12c-0.01,0-0.03,0-0.05,0.01c0,0.01,0.01,0.03,0.01,0.04
		c0.33,0.2,1.65,0.59,3.14,0.93v0c1.55,0.36,3.11,0.63,3.46,0.65C627.04,444.64,621.03,443.15,620.57,443.12z M624.38,443.12
		c-0.03,0-0.07,0.01-0.1,0.02c0.06,0.3,2.27,0.93,2.36,0.96v0c1.3,0.37,2.78,0.67,3.03,0.65
		C629.44,444.5,625.09,443.16,624.38,443.12z M650.71,443.24c0.03-0.1-0.11-0.11-0.2-0.12c-0.75,0.04-2.05,0.63-2.76,0.98v0
		c-1,0.49-1.02,0.58-1.03,0.62c0.1,0.13,1.58-0.28,2.28-0.54C650.57,443.6,650.7,443.28,650.71,443.24z M617.66,443.12
		c0.13,0.14,2.1,0.63,3.79,0.98v0c1.86,0.38,3.5,0.63,3.76,0.65C624.97,444.66,617.91,443.14,617.66,443.12z M620.11,444.1
		L620.11,444.1c2.01,0.39,3.57,0.61,3.84,0.65c-0.21-0.05-8.12-1.62-8.15-1.62C616.16,443.26,618.12,443.72,620.11,444.1z
		 M693.75,352.2c-2.88,0.17-4.1,2.88-4.05,4.75c0.09,3.56,3.8,5.1,6.2,2.58C698.24,357.05,697.39,352.41,693.75,352.2z
		 M694.89,403.02c2.99-1.53,4.34-5.66,2.05-6.31c-0.16-0.04-0.38-0.06-0.54-0.07c-2.19,0.13-3.87,2.29-4.37,3.78
		C691.24,402.8,692.71,404.14,694.89,403.02z M669.38,409.76c-0.18-0.04-0.42-0.05-0.6-0.06c-2.36,0.12-3.81,2.03-4.08,3.35
		c-0.48,2.3,1.81,3.4,4.09,1.97C671.31,413.41,671.66,410.27,669.38,409.76z M668.1,434.63c1.83,0.01,5.62-3.02,4.83-3.85
		c-0.14-0.14-0.33-0.16-0.53-0.17c-1.46,0.08-3.25,1.44-4.03,2.28C667.57,433.75,667.22,434.62,668.1,434.63z M691.28,388.78
		c2.87-2.13,2.84-6.28-0.04-6.63c-0.1-0.01-0.24-0.01-0.34-0.02c-2.6,0.15-4.11,2.52-4.35,4.16
		C686.1,389.26,688.76,390.66,691.28,388.78z M673.38,421.21c-0.22-0.09-0.46-0.11-0.65-0.12c-1.99,0.11-3.53,1.8-4.04,2.84
		c-0.8,1.66,0.11,2.63,1.88,2.01C673.21,425.03,675.05,421.93,673.38,421.21z M698.98,303.67c1.04,3.33,4.41,4.8,5.54,2.41
		c1.08-2.28-0.91-6.55-3.75-6.75C698.65,299.49,698.45,301.96,698.98,303.67z M685.52,366.4c-2.96,0.16-4.33,2.72-4.36,4.49
		c-0.06,3.32,3.63,4.78,6.16,2.43C689.84,370.98,689.21,366.6,685.52,366.4z M693.47,288.53c1.22,3.11,4.81,4.46,5.91,2.23
		c1.03-2.1-1.23-6.03-4.21-6.21C692.97,284.69,692.85,286.96,693.47,288.53z M682.4,415.44c2.88-1.09,4.7-4.76,2.79-5.6
		c-0.25-0.11-0.51-0.13-0.73-0.14c-2.08,0.12-3.78,2.03-4.32,3.35C679.35,414.99,680.46,416.18,682.4,415.44z M683.27,402.67
		c2.68-1.82,2.98-5.38,0.51-5.96c-0.19-0.04-0.45-0.06-0.64-0.07c-2.53,0.13-4.06,2.29-4.34,3.78
		C678.3,403.08,680.81,404.34,683.27,402.67z M651.26,409.7c-2.57,0.12-3.7,2.03-3.68,3.35c0.04,2.74,3.64,3.59,5.67,1.35
		C654.92,412.55,654.23,409.84,651.26,409.7z M643.16,421.09c-2.25,0.1-3.09,1.72-2.98,2.84c0.23,2.25,3.4,2.97,4.98,1.13
		C646.51,423.51,645.75,421.21,643.16,421.09z M643.7,438.03c-0.05-0.01-0.12-0.01-0.17-0.01c-1.23,0.06-1.92,0.9-1.95,1.66
		c-0.04,1.16,1.4,1.71,2.58,0.63C645.18,439.39,644.93,438.15,643.7,438.03z M634.09,443.12c-0.62,0.03-0.38,0.45-0.07,0.73
		c0.08,0.07,0.22,0.18,0.33,0.25v0c0.66,0.43,1.98,0.93,1.89,0.45C636.15,444.12,635.08,443.17,634.09,443.12z M643.49,444.75
		c0.93-0.08,2.64-1.18,2.16-1.55c-0.09-0.06-0.2-0.07-0.31-0.08c-0.82,0.04-1.58,0.66-1.87,0.98v0
		C643.41,444.17,642.87,444.8,643.49,444.75z M634.12,438.02c-1.15,0.06-1.36,0.89-0.9,1.66c0.73,1.21,2.63,1.73,2.98,0.52
		C636.46,439.3,635.53,438.09,634.12,438.02z M650.32,440.88c1.54-0.26,3.64-2.13,2.73-2.73c-0.16-0.11-0.33-0.11-0.51-0.12
		c-1.27,0.06-2.38,1.05-2.79,1.66C649.28,440.4,649.36,441.04,650.32,440.88z M659.17,421.15c-0.16-0.03-0.37-0.05-0.53-0.05
		c-2.09,0.1-3.35,1.72-3.58,2.84c-0.42,2.08,1.76,2.93,3.81,1.5C660.93,424,661.1,421.56,659.17,421.15z M656.49,440.89
		c1.04,0.16,5.14-1.99,4.57-2.75c-0.08-0.11-0.23-0.11-0.38-0.12c-1.21,0.06-2.82,1.11-3.5,1.66
		C656.55,440.19,655.98,440.82,656.49,440.89z M650.25,430.62c-0.07-0.01-0.16-0.01-0.23-0.01c-1.74,0.08-2.72,1.38-2.86,2.28
		c-0.24,1.57,1.57,2.41,3.32,1.05C652.09,432.68,651.96,430.79,650.25,430.62z M617.51,438.97c0.26,0.22,0.64,0.48,1.04,0.72
		c1.55,0.91,3.62,1.59,3.42,1c-0.21-0.62-3.05-2.57-4.61-2.66C616.53,438.08,617.26,438.76,617.51,438.97z M640.12,445.96
		c0.08,0,0.16,0,0.26,0c-0.14,0-0.28,0-0.43,0.01c-0.02,0-0.05,0-0.07,0C639.96,445.97,640.04,445.96,640.12,445.96z M637.29,445.7
		c-0.01,0-0.02,0-0.02,0c0.07,0.07,0.76,0.18,1.45,0.23v0c0.14,0.01,0.3,0.01,0.45,0.02c-0.43-0.03-0.82-0.09-1.29-0.17
		C637.52,445.72,637.4,445.7,637.29,445.7z M638.99,445.7c-0.13,0.01-0.09,0.06-0.07,0.08c0.06,0.06,0.22,0.12,0.41,0.15v0
		c0.13,0.02,0.26,0.04,0.39,0.04c-0.09,0-0.14-0.03-0.23-0.08C639.36,445.8,639.19,445.7,638.99,445.7z M639.21,445.95
		c0.03,0,0.07,0,0.1,0c0.13,0.01,0.27,0.01,0.41,0.01c-0.19,0-0.38-0.01-0.57-0.02C639.18,445.95,639.19,445.95,639.21,445.95z
		 M640.84,445.71c-0.01-0.01-0.04-0.01-0.07-0.01c-0.28,0.01-0.52,0.16-0.78,0.24v0c-0.11,0.03-0.2,0.04-0.27,0.04
		C640.41,445.96,640.91,445.77,640.84,445.71z M639.6,445.97c-0.37,0-0.73-0.01-1.09-0.01c-0.16,0-0.33,0-0.49-0.01
		c0.19,0.01,0.36,0.01,0.52,0.01c0.57,0.01,0.99,0.01,1.19,0.01c-0.03,0-0.05,0-0.08,0C639.63,445.97,639.61,445.97,639.6,445.97z
		 M639.55,445.96c0.06,0,0.12,0,0.18,0c-0.09,0-0.17-0.01-0.25-0.01C639.5,445.96,639.52,445.96,639.55,445.96z M639.64,445.97
		c0.03,0,0.06,0,0.09,0c-0.06,0-0.12,0-0.18,0C639.58,445.97,639.61,445.97,639.64,445.97z M639.65,445.97c0.03,0,0.05,0,0.08,0
		C639.69,445.97,639.67,445.97,639.65,445.97C639.64,445.97,639.64,445.97,639.65,445.97z M640.1,445.96
		c-0.12,0-0.24,0.01-0.37,0.01c0.08,0,0.15,0,0.22,0C639.99,445.96,640.04,445.96,640.1,445.96z M639.47,445.96
		c0.09,0,0.17,0.01,0.25,0.01c-0.09,0-0.19-0.01-0.28-0.01C639.45,445.96,639.46,445.96,639.47,445.96z M639.31,445.96
		c0.13,0.01,0.27,0.01,0.41,0.01c-0.09,0-0.19-0.01-0.28-0.01C639.41,445.96,639.36,445.96,639.31,445.96z M642.46,445.7
		c-0.62,0.03-1.22,0.18-1.83,0.24v0c-0.2,0.02-0.38,0.03-0.53,0.03c1.39-0.03,2.32-0.21,2.39-0.26
		C642.48,445.7,642.47,445.7,642.46,445.7z M640.47,445.96C640.46,445.96,640.46,445.96,640.47,445.96
		C640.46,445.96,640.46,445.96,640.47,445.96C640.46,445.96,640.46,445.96,640.47,445.96z M643.97,445.7
		c-0.93,0.04-1.84,0.19-2.77,0.24v0c-0.31,0.02-0.59,0.02-0.83,0.03C642.44,445.92,643.8,445.74,643.97,445.7
		C643.97,445.7,643.97,445.7,643.97,445.7z M642.61,445.93c2.81-0.07,4.67-0.22,4.77-0.23
		C646.18,445.77,644.69,445.87,642.61,445.93z M640.26,445.96c0.02,0,0.04,0,0.06,0c-0.03,0-0.05,0-0.08,0
		C640.25,445.96,640.26,445.96,640.26,445.96z M640.17,445.97c0,0,0.01,0,0.01,0c0.02,0,0.04,0,0.06,0c0.01,0,0.01,0,0.02,0
		c-0.01,0-0.02,0-0.02,0C640.22,445.96,640.19,445.97,640.17,445.97z M641.21,445.96c-0.01,0-0.02,0-0.02,0c-0.02,0-0.03,0-0.05,0
		C641.16,445.96,641.18,445.96,641.21,445.96z M641.7,445.93L641.7,445.93c-0.2,0.01-0.38,0.01-0.56,0.02
		c2.48-0.06,4.08-0.24,4.13-0.25C644.07,445.74,642.89,445.88,641.7,445.93z M647.01,445.7c-3.3,0.2-3.3,0.2-4.63,0.24v0
		c-0.39,0.01-0.79,0.02-1.2,0.03c0.01,0,0.02,0,0.02,0C644.66,445.9,646.99,445.7,647.01,445.7z M640.7,445.96
		c0.14,0,0.28-0.01,0.43-0.01C640.99,445.95,640.85,445.96,640.7,445.96z M642.1,445.93L642.1,445.93
		c-0.38,0.01-0.77,0.02-1.16,0.03c3.24-0.05,5.35-0.26,5.36-0.26C644.89,445.76,643.5,445.89,642.1,445.93z M604.96,401.96
		c0.75-2.09-1.24-5.16-4.23-5.32c-2.46,0.13-2.68,2.29-2.06,3.78h0C599.99,403.53,604.04,404.52,604.96,401.96z M639.55,445.96
		c-0.02,0-0.05,0-0.08,0c-0.29,0-0.57-0.01-0.85-0.02C638.91,445.95,639.22,445.96,639.55,445.96z M741.34,319.93
		c0.53,2.65,1.45,4.41,1.89,3.62c0.66-1.18-0.51-7.98-1.77-8.25C740.76,315.47,740.97,318.11,741.34,319.93z M639.72,445.97
		c-0.2,0-0.62,0-1.19-0.01C638.91,445.97,639.25,445.97,639.72,445.97z M741.04,307.18c0.24-0.71-1.97-7.54-2.88-7.84
		c-0.35,0.15,0.37,2.62,0.99,4.33C740,306,740.88,307.63,741.04,307.18z M637.29,445.93L637.29,445.93c-1.19-0.04-2.2-0.1-2.9-0.15
		c-0.54-0.03-1.15-0.06-1.84-0.09c0.19,0.02,2.02,0.17,4.48,0.24v0c0.57,0.02,1.08,0.02,1.51,0.03c-0.16,0-0.33-0.01-0.52-0.01
		C637.77,445.94,637.53,445.94,637.29,445.93z M639.6,445.97c-0.37,0-0.73-0.01-1.09-0.01C638.87,445.96,639.23,445.97,639.6,445.97
		z M741.66,371.31c0.18-0.56,0.35-1.12,0.52-1.68c0.41-1.4,0.89-3.1,0.82-3.23c-0.34,0.46-1.55,4.45-1.56,4.49
		c-0.09,0.31-0.92,3.09-0.93,3.57C740.57,374.4,740.71,374.29,741.66,371.31z M745.74,337.1c0.04,1.31,0.19,3.82,0.47,3.98
		c0.48-0.29,0.3-8.55-0.2-8.84C745.72,332.42,745.68,335.19,745.74,337.1L745.74,337.1z M745.48,323.61
		c-0.09-0.62-0.19-1.24-0.29-1.86c-0.33-2.03-0.72-4.03-1.16-6.02c0.22,1.09,0.7,3.64,0.8,4.19
		C745.08,321.29,745.4,323.02,745.48,323.61z M640.44,445.96c-0.04,0-0.08,0-0.12,0c0.09,0,0.18,0,0.27,0c-0.04,0-0.09,0-0.13,0
		c0,0,0,0,0,0C640.45,445.96,640.44,445.96,640.44,445.96z M743.4,358.13c0.82-0.77,2.12-8.16,1-8.48
		c-0.62,0.17-1.21,2.88-1.43,4.75C742.67,356.91,742.87,358.62,743.4,358.13z M741.86,340.89c1.26-1.3,1.22-8.34-0.58-8.64
		c-1.02,0.17-1.33,2.94-1.23,4.85v0C740.19,339.91,741.06,341.72,741.86,340.89z M639.65,445.97
		C639.64,445.97,639.64,445.97,639.65,445.97c-0.02,0-0.03,0-0.05,0C639.61,445.97,639.63,445.97,639.65,445.97z M637.67,445.93
		c0.27,0.01,0.55,0.02,0.83,0.02c0.36,0.01,0.72,0.01,1.09,0.01c0.01,0,0.03,0,0.04,0c-0.02,0-0.05,0-0.09,0
		c-0.33,0-0.64-0.01-0.93-0.02c-0.15-0.01-0.32,0-0.47-0.01v0c-0.4-0.02-0.76-0.04-1.08-0.07c-0.53-0.02-1.18-0.05-1.96-0.09
		C635.7,445.83,636.6,445.89,637.67,445.93L637.67,445.93z M637.03,445.86c-0.87-0.06-1.74-0.12-2.61-0.16
		c0.08,0.02,0.33,0.04,0.7,0.08c0.78,0.03,1.43,0.06,1.96,0.09C637.05,445.86,637.04,445.86,637.03,445.86z M637.12,445.86
		c-0.03,0-0.07,0-0.1-0.01c0.01,0,0.03,0,0.04,0C637.09,445.86,637.1,445.86,637.12,445.86z M638.51,445.95
		c-0.28-0.01-0.56-0.01-0.83-0.02v0c-1.07-0.04-1.98-0.1-2.56-0.16c-0.53-0.02-1.11-0.05-1.78-0.08c0.06,0.01,0.45,0.05,1.06,0.09
		c1.96,0.1,2.93,0.14,3.63,0.16C638.18,445.95,638.35,445.95,638.51,445.95z M637.29,445.93c0.24,0.01,0.48,0.01,0.72,0.02
		c-0.7-0.02-1.67-0.07-3.63-0.16C635.09,445.84,636.1,445.89,637.29,445.93L637.29,445.93z M639.45,445.96c-0.04,0-0.08,0-0.14-0.01
		c-0.03,0-0.06,0-0.1,0c-0.27-0.01-0.72-0.03-1.46-0.06c0.27,0.02,0.54,0.04,0.83,0.05C638.87,445.95,639.16,445.96,639.45,445.96z
		 M637.75,445.89c-0.5-0.04-0.97-0.09-1.48-0.14c-0.42-0.05-0.46-0.05-0.52-0.05c0.05,0.03,0.55,0.1,1.28,0.16
		c0.03,0,0.07,0,0.1,0.01C637.35,445.87,637.56,445.88,637.75,445.89z M638.62,445.94c0.28,0.01,0.56,0.02,0.85,0.02
		c-0.01,0-0.02,0-0.02,0c-0.29,0-0.58-0.01-0.87-0.02C638.59,445.94,638.61,445.94,638.62,445.94z M637.12,445.86
		c-0.02,0-0.04,0-0.06,0c0.32,0.03,0.69,0.05,1.08,0.07v0c0.15,0.01,0.31,0.01,0.47,0.01c-0.01,0-0.03,0-0.04,0
		C638.09,445.92,637.61,445.89,637.12,445.86z M638.58,445.94c-0.29-0.01-0.56-0.03-0.83-0.05c-0.19-0.01-0.4-0.02-0.63-0.03
		C637.61,445.89,638.09,445.92,638.58,445.94z M640.7,445.96c-0.05,0-0.11,0-0.16,0c0.01,0,0.01,0,0.02,0
		C640.61,445.96,640.65,445.96,640.7,445.96z M560.34,373.57c1.12-2.23-0.7-6.96-3.32-7.17c-1.87,0.16-1.92,2.72-1.37,4.49
		C556.66,374.05,559.32,375.58,560.34,373.57z M555.96,299.36c-0.06-0.01-0.15-0.01-0.21-0.02c-1.69,0.15-3.05,2.62-3.48,4.33
		c-0.67,2.68,0.36,4.33,2.05,3.27C556.84,305.37,558.05,299.77,555.96,299.36z M570.26,370.89c0.95,3.32,4.41,4.77,5.78,2.43
		c1.36-2.33-0.48-6.71-3.57-6.92C570.1,366.56,569.75,369.12,570.26,370.89z M573.3,409.7c-1.32,0.12-0.29,2.03,0.85,3.35
		c1.88,2.16,4.3,3.33,4.4,2.13C578.66,413.82,575.45,409.87,573.3,409.7z M580.99,356.98c1.83-2.47,0.37-7.11-3.04-7.32
		c-2.64,0.17-3.38,2.88-3.07,4.75C575.48,357.95,579.13,359.49,580.99,356.98z M639.96,445.97c-0.08,0-0.15,0-0.23,0
		c0.08,0,0.15,0,0.22,0C639.95,445.97,639.95,445.97,639.96,445.97z M639.98,445.97c-0.09,0-0.17,0-0.26,0c0.08,0,0.16,0,0.23,0
		C639.96,445.97,639.97,445.97,639.98,445.97z M568.47,386.3c1.36,3.12,4.52,4.44,5.36,2.24c0.83-2.16-1.42-6.22-4.12-6.41
		C567.66,382.28,567.75,384.66,568.47,386.3z M639.95,445.97c-0.07,0-0.15,0-0.22,0C639.77,445.97,639.85,445.97,639.95,445.97
		C639.94,445.97,639.95,445.97,639.95,445.97z M639.94,445.97c-0.09,0-0.17,0-0.22,0c0.08,0,0.22,0,0.39,0
		C640.06,445.97,640,445.97,639.94,445.97z M642.61,445.93c-0.44,0.01-0.92,0.02-1.4,0.03c-0.02,0-0.05,0-0.07,0
		c-0.06,0-0.11,0-0.17,0c-0.21,0-0.42,0-0.64,0.01c-0.04,0-0.08,0-0.12,0c-0.02,0-0.04,0-0.06,0c-0.01,0-0.02,0-0.03,0
		c-0.17,0-0.31,0-0.39,0c0.36,0,1.46,0,2.82-0.04v0C642.57,445.93,642.59,445.93,642.61,445.93z M574.58,402.67
		c0.5-1.87-2.23-5.85-4.64-6.03c-1.69,0.13-1.13,2.29-0.2,3.78C571.38,403.05,574.14,404.33,574.58,402.67z M640.05,445.97
		c-0.06,0-0.12,0-0.19,0c-0.06,0-0.11,0-0.14,0c0.09,0,0.17,0,0.26,0C640,445.97,640.03,445.97,640.05,445.97z M572.71,422.34
		c1.12,0.9,2.25,1.78,3.41,2.64c0.71,0.52,1.52,1.1,1.67,1.16c-0.23-0.31-6.48-5.03-6.52-5.05
		C571.31,421.14,571.39,421.27,572.71,422.34z M569.56,299.36c-0.08-0.01-0.2-0.01-0.28-0.02c-2.19,0.15-3.62,2.62-3.95,4.33
		c-0.53,2.81,1.3,4.46,3.44,3.1C571.65,304.94,572.2,299.75,569.56,299.36z M580.25,426.09c0.1-0.43-5.12-4.83-6.35-5
		c-0.45,0.1,1.04,1.55,2.71,2.84C578.38,425.31,580.18,426.38,580.25,426.09z M581.64,423.94c1.95,1.61,4.05,2.65,4.09,2.01
		c0.04-0.82-4.16-4.7-5.96-4.86C578.91,421.19,580.07,422.64,581.64,423.94z M570.55,415.44c0.03-0.96-3.87-5.55-5.52-5.74
		c-0.75,0.11,0.33,1.82,1.77,3.35C568.6,414.96,570.53,416.19,570.55,415.44z M563.95,337.1c0.2,3.55,3.11,5.25,5.1,2.97
		c2.13-2.43,1.34-7.6-1.88-7.83C564.77,332.41,563.84,335.19,563.95,337.1z M566.02,415.65c0.05-0.54-4.92-5.78-5.65-5.95
		c-0.01,0-0.03,0.01-0.04,0.02c-0.04,0.32,1.34,1.96,2.67,3.33C564.11,414.19,565.77,415.76,566.02,415.65z M560.62,349.65
		c-2.16,0.17-2.67,2.88-2.35,4.75c0.59,3.38,3.41,5.01,4.94,2.85C564.89,354.89,563.6,349.88,560.62,349.65z M559.92,400.42
		c1.61,2.36,3.69,3.72,3.97,2.6c0.38-1.52-2.78-6.19-4.71-6.38C558,396.78,558.9,398.93,559.92,400.42z M640.17,445.97
		c-0.07,0-0.14,0-0.21,0c0,0-0.01,0-0.01,0c0.06,0,0.13,0,0.19,0C640.15,445.97,640.16,445.97,640.17,445.97z M640.11,445.97
		c0.01,0,0.02,0,0.03,0c0,0,0,0-0.01,0C640.13,445.97,640.12,445.97,640.11,445.97z M639.95,445.97
		C639.95,445.97,639.94,445.97,639.95,445.97c0.05,0,0.11,0,0.17,0c0.01,0,0.02,0,0.03,0C640.08,445.97,640.01,445.97,639.95,445.97
		z M640.17,445.97c-0.01,0-0.02,0-0.03,0c0,0,0,0,0.01,0c0.01,0,0.03,0,0.04,0C640.18,445.97,640.17,445.97,640.17,445.97z
		 M639.88,445.97c-0.05,0-0.1,0-0.15,0c0.03,0,0.08,0,0.14,0C639.87,445.97,639.87,445.97,639.88,445.97z M640.15,445.97
		c0.02,0,0.04,0,0.06,0c-0.01,0-0.02,0-0.03,0C640.17,445.97,640.16,445.97,640.15,445.97z M640.24,445.96c-0.09,0-0.17,0-0.26,0
		c-0.01,0-0.02,0-0.02,0c0.07,0,0.14,0,0.21,0C640.19,445.97,640.22,445.96,640.24,445.96z M640.46,445.96
		C640.46,445.96,640.45,445.96,640.46,445.96c-0.01,0-0.01,0-0.02,0C640.44,445.96,640.45,445.96,640.46,445.96z M640.46,445.96
		C640.46,445.96,640.46,445.96,640.46,445.96C640.45,445.96,640.46,445.96,640.46,445.96C640.46,445.96,640.46,445.96,640.46,445.96
		z M640.32,445.96c0.04,0,0.08,0,0.12,0c0.01,0,0.01,0,0.02,0c-0.13,0-0.27,0-0.4,0c-0.02,0-0.05,0-0.07,0c0.09,0,0.18,0,0.26,0
		C640.27,445.96,640.29,445.96,640.32,445.96z M640.46,445.96C640.46,445.96,640.46,445.96,640.46,445.96
		C640.46,445.96,640.46,445.96,640.46,445.96C640.46,445.96,640.46,445.96,640.46,445.96z M640.21,445.97c0.04,0,0.08,0,0.12,0
		c-0.03,0-0.06,0-0.09,0C640.23,445.96,640.22,445.96,640.21,445.97z M640.18,445.97c0.01,0,0.02,0,0.03,0c0.01,0,0.02,0,0.03,0
		C640.22,445.96,640.2,445.97,640.18,445.97z M639.87,445.97c0.06,0,0.12,0,0.19,0c0.02,0,0.04,0,0.06,0c-0.08,0-0.16,0-0.24,0
		C639.87,445.97,639.87,445.97,639.87,445.97z M640.45,445.96C640.46,445.96,640.46,445.96,640.45,445.96c0.01,0,0.01,0,0.01,0
		c0.02,0,0.05,0,0.07,0c-0.14,0-0.28,0-0.42,0c-0.02,0-0.04,0-0.06,0C640.19,445.96,640.32,445.96,640.45,445.96z M640.56,445.96
		c-0.01,0-0.01,0-0.02,0c-0.02,0-0.05,0-0.07,0C640.5,445.96,640.53,445.96,640.56,445.96z M639.94,445.96c-0.08,0-0.14,0-0.22,0
		c0.05,0,0.1,0,0.15,0C639.9,445.97,639.92,445.97,639.94,445.96z M677.53,438.02c-0.34,0.03-1.25,0.33-4.59,1.66
		c-2.58,1.03-2.7,1.11-2.81,1.19c0.63,0.14,6.95-2.26,7.44-2.82C677.56,438.05,677.54,438.03,677.53,438.02z M640.96,445.96
		c0.06,0,0.11,0,0.17,0c0.02,0,0.03,0,0.05,0c-0.11,0-0.23,0-0.34,0c-0.04,0-0.07,0-0.11,0
		C640.81,445.96,640.89,445.96,640.96,445.96z M640.46,445.96c0.04,0,0.09,0,0.13,0c0.08,0,0.17,0,0.25,0c0.03,0,0.06,0,0.08,0
		c-0.12,0-0.25,0-0.37,0C640.53,445.96,640.5,445.96,640.46,445.96C640.46,445.96,640.46,445.96,640.46,445.96z M640.33,445.96
		c0.21,0,0.43,0,0.64-0.01c-0.08,0-0.15,0-0.23,0C640.6,445.96,640.46,445.96,640.33,445.96z M640.59,445.96c-0.09,0-0.18,0-0.27,0
		c-0.02,0-0.04,0-0.06,0c-0.01,0-0.01,0-0.02,0c0.03,0,0.06,0,0.09,0c0.14,0,0.27,0,0.4,0
		C640.69,445.96,640.64,445.96,640.59,445.96z M640.73,445.96c0.04,0,0.07,0,0.11,0c-0.08,0-0.17,0-0.25,0
		C640.64,445.96,640.69,445.96,640.73,445.96z M663.16,241.57c-1.21,0.08,0,1.45,0.57,1.98v0c1.83,1.68,4.05,2.22,4.06,1.28
		C667.8,243.76,664.82,241.66,663.16,241.57z M609.79,236.47c-0.66,0.19-1.32,0.39-1.98,0.6
		C608.45,236.87,609.09,236.67,609.79,236.47z M606.92,238.46c0.34,0.19,7.32-2.45,7.37-2.49c-0.01-0.01-0.02-0.02-0.02-0.02
		c-0.44,0.04-2.56,0.61-4.59,1.32C608.47,237.69,607.1,238.24,606.92,238.46z M607.3,237.23c-0.65,0.21-1.29,0.42-1.94,0.63
		C606.04,237.63,606.67,237.43,607.3,237.23z M612.25,235.95c-0.29,0.04-2.34,0.57-4.63,1.32h0c-1.45,0.47-2.84,0.98-3.22,1.19
		C604.54,238.54,612.2,235.99,612.25,235.95z M603.45,245.27c1.23,0.22,6.19-2.96,5.65-3.62c-0.05-0.06-0.16-0.07-0.25-0.08
		c-1,0.06-3.01,1.07-4.26,1.97C603.36,244.42,602.87,245.16,603.45,245.27z M611,238.46c0.5,0.27,6.24-2.18,6.55-2.46
		c0-0.01-0.01-0.03-0.01-0.04c-0.02,0-0.04,0-0.05-0.01c-0.57,0.04-2.58,0.62-4.32,1.32C612.06,237.72,610.96,238.26,611,238.46z
		 M626.08,233.14c-0.46,0.06-0.96,0.13-1.49,0.21C625.09,233.28,625.59,233.22,626.08,233.14z M624.14,233.43
		c-1.68,0.27-3.01,0.53-3.41,0.63c0.19,0,8.08-1.23,8.12-1.24c-0.21,0.02-1.29,0.13-2.76,0.33c-0.5,0.07-1,0.14-1.49,0.21
		C624.44,233.38,624.3,233.4,624.14,233.43z M596.45,245.27c0.83,0.23,6.91-3.19,6.51-3.67c-0.03-0.03-0.09-0.03-0.13-0.03
		c-0.82,0.06-3.04,1.09-4.51,1.97C596.89,244.4,596.07,245.16,596.45,245.27z M626.08,233.14c0.76-0.11,1.51-0.23,2.27-0.33
		c-0.22,0.02-2.2,0.22-4.76,0.61c-2.25,0.34-3.73,0.64-3.74,0.64c1.58-0.23,3.16-0.47,4.73-0.71
		C625.12,233.28,625.62,233.21,626.08,233.14z M616.42,238.46c0.53,0.28,5.59-1.99,5.47-2.46c-0.01-0.04-0.08-0.05-0.14-0.05
		c-0.7,0.04-2.53,0.67-3.85,1.32C616.79,237.82,616.17,238.32,616.42,238.46z M576.8,254.21c0.59,0.14,6.78-4.29,6.63-4.75
		c-0.01,0-0.03-0.01-0.05-0.01c-0.58,0.08-2.7,1.42-4.24,2.57C577.94,252.91,576.7,253.98,576.8,254.21z M563.99,277.71
		c2.13-0.36,5.82-5.75,4.44-6.48c-0.08-0.04-0.2-0.06-0.29-0.06c-1.38,0.12-3.23,2.16-4.1,3.57
		C562.9,276.56,562.88,277.9,563.99,277.71z M569.5,259.4c-0.01,0-0.02-0.01-0.03-0.01c-0.46,0.1-2.3,1.68-3.72,3.1
		c-0.83,0.82-2.22,2.3-2.17,2.61C564.02,265.28,569.55,259.95,569.5,259.4z M559.51,315.31c-2.07,0.16-3.21,2.8-3.36,4.62
		c-0.26,3.18,1.82,4.88,3.78,3.09C562.23,320.91,562.39,315.54,559.51,315.31z M591.46,245.24c0.51,0.29,6.88-3.23,7.14-3.63
		c-0.02-0.01-0.04-0.02-0.05-0.03c-0.56,0.06-2.72,1-4.53,1.97C593.12,244.02,591.58,244.92,591.46,245.24z M568.34,265.11
		c1.27,0.02,6.3-5.02,5.66-5.67c-0.04-0.04-0.12-0.05-0.17-0.06c-0.89,0.1-2.86,1.69-4.17,3.1h0
		C568.3,263.95,567.72,265.11,568.34,265.11z M564.23,291.68c2.71-1.1,4.78-6.31,2.81-7.06c-0.12-0.05-0.29-0.06-0.42-0.07
		c-1.79,0.14-3.43,2.41-4.03,3.98C561.7,290.85,562.5,292.38,564.23,291.68z M582.06,254.23c1.25,0.02,6.71-4.18,6.15-4.73
		c-0.04-0.03-0.11-0.04-0.16-0.05c-0.89,0.08-3.02,1.39-4.46,2.57C582.11,253.23,581.43,254.22,582.06,254.23z M596.25,241.57
		c-0.28,0.06-2.27,0.94-4.32,1.97c-1.5,0.76-2.91,1.55-3.09,1.72C589.11,245.27,596.21,241.61,596.25,241.57
		C596.26,241.57,596.26,241.57,596.25,241.57z M575.9,277.58c2.64-0.94,5.08-5.33,3.49-6.27c-0.19-0.11-0.41-0.13-0.59-0.14
		c-1.8,0.12-3.62,2.16-4.33,3.57C573.42,276.8,574.13,278.21,575.9,277.58z M581.45,249.49c-2.27,1.48-4.48,3.04-6.62,4.69v0
		c-0.01,0.01-0.03,0.02-0.04,0.03c0.19-0.1,6.71-4.74,6.74-4.76L581.45,249.49z M622.48,234.06c0.17,0.03,7.34-1.22,7.39-1.24
		c-0.27,0.01-2.26,0.24-4.41,0.61C623.96,233.69,622.77,233.95,622.48,234.06z M639.09,232.22c0.17,0,0.34,0,0.53,0
		c0,0-0.01,0-0.01,0c-0.17,0-0.33,0-0.49,0c-0.02,0-0.04,0-0.06,0C639.07,232.22,639.08,232.22,639.09,232.22z M639.67,232.22
		c-0.01,0-0.03,0-0.04,0c0.02,0,0.04,0,0.06,0c0,0,0,0,0.01,0c0.01,0,0.02,0,0.03,0C639.71,232.22,639.69,232.22,639.67,232.22
		C639.67,232.22,639.67,232.22,639.67,232.22z M639.68,232.22c0.01,0,0.02,0,0.04,0C639.71,232.22,639.7,232.22,639.68,232.22
		C639.69,232.22,639.69,232.22,639.68,232.22z M639.68,232.22c0.01,0,0.02,0,0.03,0c0,0,0.01,0,0.01,0
		C639.71,232.22,639.7,232.22,639.68,232.22C639.68,232.22,639.68,232.22,639.68,232.22z M639.67,232.22c0.02,0,0.03,0,0.05,0
		C639.71,232.22,639.69,232.22,639.67,232.22C639.67,232.22,639.67,232.22,639.67,232.22z M639.65,232.22c0.01,0,0.01,0,0.02,0
		c0.02,0,0.03,0,0.05,0C639.7,232.22,639.67,232.22,639.65,232.22C639.65,232.22,639.65,232.22,639.65,232.22z M639.71,232.22
		c0,0,0.01,0,0.01,0C639.72,232.22,639.72,232.22,639.71,232.22L639.71,232.22z M639.35,232.23c0.12,0,0.24-0.01,0.36-0.01
		c0,0,0,0,0,0C639.58,232.22,639.46,232.22,639.35,232.23z M639.71,232.22c0.01,0,0.01,0,0.01,0
		C639.72,232.22,639.71,232.22,639.71,232.22C639.71,232.22,639.71,232.22,639.71,232.22z M639.71,232.22c0.01,0,0.01,0,0.01,0
		C639.72,232.22,639.71,232.22,639.71,232.22C639.71,232.22,639.71,232.22,639.71,232.22z M639.64,232.22
		C639.63,232.22,639.63,232.22,639.64,232.22C639.64,232.22,639.64,232.22,639.64,232.22c0.01,0,0.01,0,0.01,0c0.02,0,0.05,0,0.07,0
		C639.7,232.22,639.66,232.22,639.64,232.22L639.64,232.22z M639.71,232.22C639.71,232.22,639.71,232.22,639.71,232.22
		c0,0,0.01,0,0.01,0C639.72,232.22,639.72,232.22,639.71,232.22L639.71,232.22z M639.01,232.22c0.01,0,0.01,0,0.02,0
		c0.01,0,0.02,0,0.04,0c-0.01,0-0.01,0-0.02,0c-0.02,0-0.03,0-0.05,0c-0.01,0-0.02,0-0.03,0
		C638.97,232.22,638.99,232.22,639.01,232.22z M639.61,232.22c0,0,0.01,0,0.01,0c0,0,0.01,0,0.01,0h0c0.03,0,0.06,0,0.09,0
		c-0.03,0-0.07,0-0.1,0C639.62,232.22,639.62,232.22,639.61,232.22z M636.47,234.07c0.78,0.09,1.78-0.91,1.59-1.2
		c-0.03-0.05-0.1-0.05-0.15-0.06c-0.37,0.02-1.05,0.31-1.42,0.61C636.06,233.78,636.14,234.03,636.47,234.07z M628.29,234.04
		c0.21,0.21,4.93-1.19,4.97-1.21c-0.01,0-0.02-0.01-0.03-0.01c-0.36,0.02-1.89,0.27-3.22,0.61
		C629.31,233.61,628.43,233.88,628.29,234.04z M632.12,234.06c0.42,0.17,3.22-1.01,3.38-1.22c-0.01-0.01-0.04-0.02-0.06-0.02
		c-0.35,0.02-1.48,0.27-2.38,0.61C632.26,233.73,631.95,233.99,632.12,234.06z M638.99,232.22c-0.02,0-0.04,0-0.06,0
		c0.01,0,0.02,0,0.03,0C638.97,232.22,638.98,232.22,638.99,232.22z M634.62,241.57c-1.44,0.07-2.31,1.2-2.48,1.97
		c-0.31,1.52,1.54,2.3,3.05,1.28c1.54-1.04,1.18-2.94-0.22-3.22C634.87,241.58,634.72,241.57,634.62,241.57z M639.63,232.22
		c0.03,0,0.07,0,0.1,0C639.69,232.22,639.65,232.22,639.63,232.22c-0.01,0-0.02,0-0.02,0c0,0,0.01,0,0.01,0
		C639.62,232.22,639.62,232.22,639.63,232.22z M625.04,234.06c0.22,0.08,6.26-1.22,6.31-1.23c0,0,0-0.01,0-0.01
		c-0.3,0.01-2.11,0.25-3.91,0.61C626.23,233.67,625.19,233.95,625.04,234.06z M556.18,277.71c1.52-0.38,5.69-6.12,4.75-6.53
		c-0.03-0.01-0.06-0.01-0.09-0.02c-0.79,0.11-2.51,1.94-3.66,3.57C555.92,276.53,555.46,277.89,556.18,277.71z M639.12,232.22
		c-0.03,0-0.05,0-0.08,0c0.01,0,0.01,0,0.02,0C639.08,232.22,639.1,232.22,639.12,232.22z M560.47,388.99
		c0.75-1.88-1.67-6.65-3.97-6.86c-1.53,0.15-1.11,2.52-0.32,4.16l0,0C557.52,389.09,559.85,390.55,560.47,388.99z M663.64,443.12
		c-1.6,0.18-3.13,0.67-4.69,0.98v0c-1.16,0.23-2.33,0.4-3.49,0.65C656.83,444.63,662.7,443.49,663.64,443.12
		C663.64,443.13,663.64,443.13,663.64,443.12z M664.28,443.13l0.03-0.01c-0.02,0-0.03,0.01-0.05,0.01
		C664.27,443.13,664.28,443.13,664.28,443.13z M657.18,444.55c1.08-0.18,2.16-0.37,3.22-0.58c-0.23,0.05-0.47,0.09-0.72,0.14v0
		C658.71,444.29,657.88,444.43,657.18,444.55z M639.71,232.22c-0.13,0-0.26,0.01-0.4,0.01c-0.05,0-0.08,0-0.12,0.01
		c0.05,0,0.1,0,0.16,0C639.46,232.22,639.58,232.22,639.71,232.22C639.71,232.22,639.71,232.22,639.71,232.22z M603.59,439.68
		c1.81,0.65,3.27,1.11,3.65,1.21c-0.17-0.09-7.79-2.86-7.83-2.87C599.59,438.15,601.47,438.92,603.59,439.68z M657.06,444.57
		c0.04-0.01,0.08-0.01,0.12-0.02c-0.17,0.03-0.34,0.06-0.5,0.08C656.81,444.61,656.93,444.59,657.06,444.57z M616.38,440.8
		c-0.18-0.4-4.34-2.68-5.82-2.78c-0.12,0.01-0.44,0.04,0.05,0.46c0.38,0.33,1.15,0.77,2.07,1.2l0,0
		C614.35,440.46,616.54,441.17,616.38,440.8z M605.03,438.06c0.01,0.26,1.58,1.03,3.05,1.63l0,0c1.51,0.61,3.48,1.26,3.85,1.21
		c0-0.02,0-0.04,0-0.05c-0.46-0.41-5.76-2.74-6.8-2.82C605.1,438.03,605.06,438.04,605.03,438.06z M601.31,438.06
		c0.26,0.25,1.87,0.96,3.68,1.63c1.6,0.59,3.43,1.17,3.84,1.22c-0.19-0.27-7.13-2.84-7.49-2.88
		C601.33,438.03,601.32,438.05,601.31,438.06z M661.01,443.84c1.09-0.22,2.18-0.45,3.25-0.71
		C663.58,443.29,662.46,443.55,661.01,443.84z M716.19,413.04c-0.8,0.86-2.16,2.33-2.24,2.61c0.46,0,5.51-5.27,5.69-5.94
		c-0.01,0-0.01-0.01-0.02-0.02C719.19,409.84,716.49,412.72,716.19,413.04z M720.79,396.64c-1.35,0.14-3.1,2.39-3.89,3.78
		c-1.12,1.97-1.12,3.31-0.01,2.93c2.16-0.74,5.4-5.89,4.18-6.64C720.99,396.67,720.87,396.65,720.79,396.64z M557.42,271.18
		c0,0-0.01-0.01-0.01-0.02c-0.27,0.12-1.76,1.94-2.98,3.57c-0.71,0.94-1.93,2.63-2.02,2.98
		C552.8,277.71,557.31,271.58,557.42,271.18z M716.07,409.76c-0.03-0.04-0.1-0.05-0.15-0.06c-0.9,0.12-2.91,2.12-3.97,3.35
		c-1.11,1.3-1.96,2.61-1.42,2.62C711.77,415.7,716.64,410.51,716.07,409.76z M703.06,423.94c-0.9,0.72-2.4,1.96-2.41,2.19
		c0.53,0.2,6.53-4.44,6.48-5.02c-0.01,0-0.03-0.01-0.04-0.01C706.47,421.22,703.41,423.66,703.06,423.94z M708.8,409.76
		c-0.08-0.04-0.2-0.05-0.29-0.06c-1.41,0.12-3.38,2.12-4.29,3.35c-1.22,1.64-1.39,2.76-0.41,2.61
		C705.99,415.31,710.09,410.47,708.8,409.76z M710.67,396.71c-0.12-0.05-0.29-0.06-0.42-0.07c-1.77,0.13-3.54,2.29-4.23,3.78
		c-0.97,2.1-0.38,3.46,1.25,2.85C710.09,402.22,712.56,397.44,710.67,396.71z M655.93,444.75c0.02,0,0.05-0.01,0.07-0.01
		C655.97,444.74,655.94,444.74,655.93,444.75C655.92,444.75,655.92,444.75,655.93,444.75z M545.95,291.83
		c1.13-0.39,4.55-6.84,3.86-7.26c-0.02-0.01-0.05-0.01-0.07-0.02c-0.68,0.14-2.12,2.41-2.93,3.98
		C545.77,290.55,545.39,292.03,545.95,291.83z M546.04,389.62c0.01-0.01,0.02-0.01,0.03-0.02c0.19-0.73-3-7.22-3.67-7.47
		c-0.01,0.01-0.02,0.01-0.03,0.02c-0.11,0.43,0.91,2.71,1.63,4.14C544.54,387.39,545.67,389.49,546.04,389.62z M543.82,307.18
		c1.8-0.87,3.86-7.38,2.48-7.82c-0.04-0.01-0.09-0.01-0.13-0.02c-1.09,0.15-2.32,2.62-2.84,4.33
		C542.62,306.01,542.85,307.65,543.82,307.18z M539.02,337.1c0.05,2.95,1.16,4.79,2.19,3.64c1.52-1.69,1.55-8.22-0.46-8.49
		C539.51,332.41,538.99,335.19,539.02,337.1z M552.24,396.64c-0.54,0.12,0.45,2.06,1.67,3.78c1.48,2.08,2.96,3.46,3.06,2.85
		C557.12,402.32,553.49,396.86,552.24,396.64z M541,374.3c0.44-1.13-1.46-7.64-2.62-7.9c-0.6,0.16-0.06,2.72,0.52,4.49
		C539.71,373.41,540.72,375.04,541,374.3z M549.37,337.1c0.12,3.31,2.2,5.09,3.76,3.23c1.86-2.21,1.41-7.84-1.22-8.08
		C550.03,332.41,549.29,335.19,549.37,337.1z M549,357.71c1.52-1.91,0.47-7.81-1.98-8.06c-1.59,0.17-1.85,2.88-1.52,4.75
		C546.02,357.41,547.85,359.14,549,357.71z M552.95,291.77c2.04-0.76,4.8-6.38,3.52-7.15c-0.07-0.04-0.19-0.06-0.28-0.07
		c-1.28,0.14-2.86,2.41-3.58,3.98C551.62,290.7,551.77,292.21,552.95,291.77z M548.38,374c0.92-1.81-0.91-7.37-2.93-7.6
		c-1.28,0.16-1.03,2.72-0.45,4.49C545.92,373.72,547.7,375.35,548.38,374z M546.34,323.41c2.11-1.68,2.68-7.65,0.77-8.08
		c-0.06-0.01-0.14-0.02-0.19-0.02c-1.5,0.16-2.48,2.8-2.71,4.62C543.86,322.77,544.94,324.52,546.34,323.41z M539.27,358.03
		c0.99-1.2,0.15-8.1-1.49-8.38c-0.93,0.17-0.92,2.88-0.61,4.75C537.62,357.09,538.62,358.82,539.27,358.03z M554.35,403.37
		c-0.46-0.7-4.51-6.5-4.65-6.68C551.17,398.98,552.72,401.21,554.35,403.37z M551.02,389.33c0.5-1.38-2.18-6.97-3.81-7.2
		c-0.94,0.15-0.2,2.52,0.63,4.16C549.07,388.75,550.67,390.28,551.02,389.33z M534.31,340.99c0.66-0.8,1.08-8.42,0.05-8.75
		c-0.53,0.17-0.79,2.94-0.8,4.85C533.55,339.72,533.89,341.5,534.31,340.99z M537.43,323.66c1.11-0.76,2.79-8.04,1.28-8.35
		c-0.84,0.16-1.62,2.8-1.9,4.62C536.42,322.41,536.71,324.15,537.43,323.66z M535.52,315.31L535.52,315.31
		c-0.63,2.77-1.15,5.58-1.56,8.43C534.24,323.11,535.57,315.5,535.52,315.31z M534.72,358.2c0.02,0,0.04,0,0.06,0
		c0.24-0.83-0.81-8.26-1.21-8.54c-0.23,0.46,0.37,4.57,0.39,4.75C534.04,354.95,534.45,357.7,534.72,358.2z M541.12,299.34
		c-0.41,0.15-1.42,2.62-2.01,4.33c-0.43,1.26-1.09,3.44-0.79,3.59C539.04,307,541.65,299.6,541.12,299.34z M713.48,264.98
		c0.08-0.83-4.35-5.39-5.81-5.59c-0.56,0.11,1,1.91,2.2,3.1C711.73,264.36,713.42,265.52,713.48,264.98z M735.54,291.83
		c0.01-0.06,0.02-0.11-0.62-1.37c-0.08-0.16-0.17-0.32-0.25-0.48c-0.72-1.38-1.46-2.75-2.24-4.09c-0.72-1.24-0.8-1.31-0.83-1.33
		c0.07,0.36,1.83,3.61,2.03,3.98C734,289.2,735.21,291.41,735.54,291.83z M726.07,349.65c-1.92,0.17-2.92,2.88-3.01,4.75
		c-0.15,3.01,1.57,4.74,3.29,3.31c2.37-1.98,2.36-7.61-0.02-8.03C726.25,349.66,726.15,349.66,726.07,349.65z M729.62,288.53
		c1.28,2.34,2.69,3.85,2.95,3.15c0.41-1.07-2.56-6.88-4.05-7.13C727.82,284.69,728.82,287.07,729.62,288.53L729.62,288.53z
		 M723.05,299.34c-1.61,0.15-1.5,2.62-0.9,4.33c1.04,3,3.42,4.6,4.32,2.9C727.51,304.59,725.5,299.55,723.05,299.34z M726.03,277.71
		c0.3-0.64-4.03-6.33-4.98-6.55c-0.01,0-0.03,0.01-0.05,0.02c-0.16,0.37,1.34,2.48,2.15,3.55
		C723.98,275.82,725.65,277.84,726.03,277.71z M737.2,374.4c1.51-0.89,3.38-7.52,2.25-7.98c-0.03-0.01-0.08-0.01-0.11-0.02
		c-0.91,0.16-1.98,2.72-2.44,4.49C736.27,373.25,736.41,374.86,737.2,374.4z M733.13,389.6c0.61-0.29,4.34-7.14,3.56-7.47
		c-0.51,0.15-1.83,2.63-2.55,4.16C733.3,388.08,732.7,389.81,733.13,389.6z M717.09,274.73c1.62,2.22,3.52,3.6,3.77,2.73
		c0.35-1.25-3.15-6.09-4.97-6.3C714.96,271.29,716.14,273.42,717.09,274.73z M733.88,315.31c-1.35,0.16-1.43,2.8-1.05,4.62
		c0.63,3.03,2.33,4.75,3.26,3.3C737.29,321.35,736.01,315.55,733.88,315.31z M735.28,354.4c-0.24,2.82,0.72,4.58,1.89,3.49
		c1.7-1.58,2.39-7.97,0.4-8.23C736.26,349.82,735.44,352.53,735.28,354.4L735.28,354.4z M731.6,332.25
		c-1.66,0.17-2.22,2.94-2.09,4.85v0c0.22,3.15,1.95,4.96,3.3,3.45C734.59,338.57,734.11,332.5,731.6,332.25z M671.23,242.81
		c0.19,0.16,0.51,0.42,0.96,0.74v0c2.27,1.59,4.28,2.15,4.08,1.4c-0.27-1-4.05-3.27-5.62-3.37
		C669.99,241.62,670.6,242.27,671.23,242.81z M687.26,252.02c2.14,1.87,4.5,2.84,4.35,1.78c-0.18-1.3-4.07-4.22-5.77-4.35
		C684.83,249.54,686.18,251.07,687.26,252.02z M684.28,243.54L684.28,243.54c1.28,0.68,3.48,1.8,3.86,1.72
		c-0.04-0.62-5.98-3.58-7.09-3.7c-0.01,0-0.03,0.01-0.04,0.01C681.07,241.76,682.17,242.43,684.28,243.54z M676.87,242.08
		c0.43,0.36,1.27,0.92,2.2,1.47v0c2.28,1.35,4.17,2.08,4.04,1.58c-0.19-0.78-5.03-3.44-6.47-3.55
		C676.52,241.58,676.31,241.6,676.87,242.08z M677.49,252.02c1.84,1.97,4.52,2.91,4.62,1.63c0.11-1.38-3.18-4.09-5.09-4.2
		C675.69,249.54,676.6,251.07,677.49,252.02L677.49,252.02z M692.4,262.49c1.87,2.33,4.66,3.46,4.81,1.95
		c0.16-1.57-2.96-4.9-5.19-5.05C690.58,259.5,691.49,261.35,692.4,262.49z M713.8,262.49c1.72,1.67,2.69,2.55,2.88,2.63
		c-0.16-0.6-5.53-5.57-5.92-5.73C710.78,259.45,710.84,259.63,713.8,262.49z M679.82,438.02c-0.03,0.01-0.03,0.01-4.52,1.66
		c-1.1,0.41-2.24,0.69-3.3,1.21C672.58,440.89,679.16,438.49,679.82,438.02C679.83,438.03,679.83,438.03,679.82,438.02z
		 M707.36,274.73c1.67,2.51,4.21,3.85,4.6,2.42c0.46-1.64-2.6-5.81-4.87-5.99C705.65,271.29,706.49,273.42,707.36,274.73z
		 M699.87,252.02c0.75,0.54,3.22,2.3,3.53,2.19c0.05-0.5-5.66-4.59-6.65-4.76c-0.01,0-0.02,0.01-0.03,0.01
		C696.72,249.73,699.13,251.49,699.87,252.02z M702.61,262.49c1.92,2.08,4.15,3.27,4.25,2.27c0.13-1.27-3.65-5.2-5.56-5.37
		C700.26,259.5,701.55,261.35,702.61,262.49z M694.79,252.02c2.2,1.7,4.11,2.65,4,2.01c-0.16-1.01-4.88-4.43-6.31-4.58
		C691.78,249.55,693.91,251.34,694.79,252.02z M732.85,299.34c-1.02,0.15-0.6,2.62,0.03,4.33c0.97,2.67,2.52,4.32,3.07,3.27
		C736.75,305.43,734.7,299.59,732.85,299.34z M698.44,409.84c-0.18-0.11-0.4-0.13-0.57-0.14c-1.84,0.12-3.68,2.12-4.4,3.35
		c-1.02,1.72-0.68,2.9,0.75,2.57C696.89,414.99,699.97,410.78,698.44,409.84z M695.48,421.21c-0.09-0.09-0.24-0.11-0.36-0.12
		c-1.36,0.1-3.45,1.8-4.45,2.84c-1.04,1.09-1.66,2.2-0.83,2.2C691.7,426.16,696.34,422.1,695.48,421.21z M711.83,357.25
		c2.36-2.36,1.96-7.37-1.31-7.6c-2.44,0.17-3.58,2.88-3.6,4.75C706.87,357.78,709.67,359.4,711.83,357.25z M701.74,366.42
		c-0.1-0.01-0.24-0.01-0.34-0.02c-2.57,0.16-3.95,2.72-4.11,4.49c-0.28,3.16,2.5,4.69,4.88,2.69
		C704.9,371.27,704.63,366.79,701.74,366.42z M706.72,389.18c2.84-1.65,3.92-6.27,1.63-6.96c-0.16-0.05-0.38-0.07-0.54-0.08
		c-2.19,0.15-3.75,2.52-4.16,4.16C702.98,388.95,704.56,390.43,706.72,389.18z M696.62,426.14c1.32,0.02,6.73-4.36,6.15-4.99
		c-0.03-0.04-0.11-0.05-0.16-0.05c-0.96,0.1-3.13,1.76-4.35,2.84C697.06,424.99,696.05,426.13,696.62,426.14z M681.6,430.7
		c-0.07-0.08-0.2-0.09-0.31-0.1c-1.21,0.08-3.27,1.41-4.36,2.28c-0.98,0.78-1.74,1.62-1.22,1.73
		C677.1,434.9,682.28,431.47,681.6,430.7z M685.65,421.3c-0.18-0.18-0.4-0.19-0.63-0.21c-1.71,0.1-3.56,1.8-4.34,2.84
		c-1.02,1.38-0.92,2.32,0.23,2.19C683.17,425.87,686.67,422.31,685.65,421.3z M692.91,430.65c-0.02-0.01-0.04-0.03-0.05-0.04
		c-0.64,0.09-3.31,1.63-4.43,2.28c-2.38,1.4-2.55,1.62-2.6,1.7c0.01,0.01,0.03,0.03,0.04,0.04
		C686.81,434.5,692.52,431.41,692.91,430.65z M688.37,430.65c-0.03-0.03-0.1-0.04-0.15-0.04c-1.2,0.11-4.37,2.19-4.51,2.28
		c-0.4,0.26-2.36,1.58-1.95,1.73C682.61,434.92,688.85,431.18,688.37,430.65z M690.78,432.89c-1.05,0.58-2.13,1.09-3.14,1.73
		c0.94-0.31,7.12-3.8,7.25-4.01C693.46,431.25,692.15,432.13,690.78,432.89z M716.08,306.09c1.08-2.28-0.91-6.55-3.75-6.75
		c-2.12,0.15-2.33,2.62-1.79,4.33C711.58,307.01,714.95,308.47,716.08,306.09z M724.61,322.77c1.39-2.32-0.05-7.25-2.76-7.46
		c-1.94,0.16-2.29,2.8-1.92,4.62C720.61,323.27,723.32,324.92,724.61,322.77z M729.79,396.65c-0.21,0.31-1.3,1.9-2.6,3.78
		c-1.22,1.75-2,2.84-2.11,2.99c0.3-0.4,0.6-0.8,0.9-1.2C727.31,400.4,728.58,398.54,729.79,396.65z M721.22,288.53
		c1.44,2.78,3.68,4.25,4.07,2.68c0.45-1.82-2.19-6.46-4.22-6.66C719.75,284.69,720.46,287.07,721.22,288.53L721.22,288.53z
		 M731.41,382.16c-0.04-0.01-0.1-0.01-0.14-0.02c-1.13,0.15-2.6,2.52-3.27,4.16c-0.9,2.18-0.83,3.67,0.16,3.25
		C730.17,388.68,732.84,382.61,731.41,382.16z M727.55,396.66c-0.02-0.01-0.05-0.01-0.07-0.02c-0.75,0.14-2.46,2.39-3.36,3.78
		c-1.03,1.59-1.78,3.18-1.15,2.98C724.25,403.01,728.28,397.09,727.55,396.66z M719.1,389.46c2.56-1.13,4.6-6.47,2.77-7.24
		c-0.11-0.05-0.28-0.07-0.41-0.08c-1.7,0.15-3.25,2.52-3.81,4.16C716.86,388.63,717.55,390.14,719.1,389.46z M714.77,337.1
		L714.77,337.1c0.29,3.54,3.05,5.24,4.84,2.97c1.92-2.43,1.03-7.6-2-7.83C715.39,332.41,714.61,335.19,714.77,337.1z M730.98,366.42
		c-0.06-0.01-0.14-0.01-0.2-0.02c-1.55,0.16-2.78,2.72-3.16,4.49l0,0c-0.58,2.7,0.32,4.32,1.82,3.28
		C731.75,372.56,732.88,366.84,730.98,366.42z M717.44,374c2.75-1.87,3.29-7.18,0.77-7.58c-0.08-0.01-0.19-0.01-0.27-0.02
		c-2.1,0.16-3.43,2.72-3.71,4.49h0C713.79,373.71,715.47,375.34,717.44,374z M714.03,291c0.79-2-1.66-6.26-4.26-6.45
		c-1.76,0.14-1.52,2.41-0.79,3.98l0,0C710.35,291.46,713.28,292.89,714.03,291z M639.52,232.25c0.01,0.01,0.06,0,0.1-0.01
		c0.04-0.01,0.07-0.02,0.11-0.02c-0.01,0-0.01,0-0.01,0C639.58,232.22,639.52,232.24,639.52,232.25z M638.87,232.22
		c-1.06,0.01-1.74,0.03-1.74,0.03C637.8,232.24,638.29,232.23,638.87,232.22z M638.84,232.22c-0.87,0.01-1.41,0.03-1.41,0.03
		C638.17,232.24,638.56,232.23,638.84,232.22z M639.06,232.22c-0.01,0-0.02,0-0.04,0c0.02,0,0.04,0,0.06,0
		C639.08,232.22,639.07,232.22,639.06,232.22z M639.01,232.22C639.01,232.22,639.01,232.22,639.01,232.22c0.01,0,0.01,0,0.02,0
		C639.02,232.22,639.01,232.22,639.01,232.22z M638.87,232.22c0.04,0,0.09,0,0.13,0c-0.02,0-0.03,0-0.05,0
		C638.93,232.22,638.9,232.22,638.87,232.22z M638.84,232.22c0.09,0,0.19,0,0.29,0c-0.04,0-0.08,0-0.12,0
		C638.96,232.22,638.9,232.22,638.84,232.22z M639.74,232.22c0,0-0.01,0-0.01,0C639.73,232.22,639.73,232.22,639.74,232.22
		C639.74,232.22,639.74,232.22,639.74,232.22z M639.74,232.22C639.74,232.22,639.74,232.22,639.74,232.22
		C639.74,232.22,639.74,232.22,639.74,232.22c0,0-0.01,0-0.01,0C639.73,232.22,639.73,232.22,639.74,232.22
		C639.74,232.22,639.74,232.22,639.74,232.22z M638.9,232.25c0.05,0.01,0.1,0,0.14-0.01c0.1-0.01,0.2-0.01,0.3-0.02
		c-0.05,0-0.1,0-0.16,0C639,232.24,638.9,232.25,638.9,232.25z M639.74,232.22c0,0-0.01,0-0.01,0
		C639.73,232.22,639.73,232.22,639.74,232.22C639.74,232.22,639.74,232.22,639.74,232.22z M638.64,232.24
		c-0.19,0.01-0.3,0.01-0.3,0.01c0.29,0,0.57-0.01,0.85-0.02c0.04,0,0.07,0,0.12-0.01C639.09,232.23,638.86,232.23,638.64,232.24z
		 M639.74,232.22c-0.01,0-0.01,0-0.02,0C639.73,232.22,639.74,232.22,639.74,232.22C639.75,232.22,639.74,232.22,639.74,232.22z
		 M639.36,232.22c-0.08,0-0.16,0-0.23,0c0.09,0,0.18,0,0.27,0c0.04,0,0.08,0,0.11,0C639.47,232.22,639.41,232.22,639.36,232.22z
		 M639.63,232.22c-0.04,0-0.07,0-0.11,0c-0.04,0-0.08,0-0.11,0c0.07,0,0.13,0,0.2,0C639.62,232.22,639.62,232.22,639.63,232.22z
		 M639.09,232.22c-0.02,0-0.04,0-0.06,0c0,0-0.01,0-0.01,0c0.04,0,0.08,0,0.12,0c0.07,0,0.15,0,0.23,0
		C639.27,232.22,639.17,232.22,639.09,232.22z M639.68,232.22c-0.03,0-0.05,0-0.07,0c-0.43,0-0.75,0.01-0.97,0.02
		c0.22-0.01,0.45-0.01,0.67-0.01C639.42,232.22,639.54,232.22,639.68,232.22z M639.41,232.22c-0.91,0.01-1.49,0.03-1.56,0.03
		c0.27,0,0.53-0.01,0.79-0.01c0.22-0.01,0.54-0.02,0.97-0.02C639.54,232.22,639.48,232.22,639.41,232.22z M639.71,232.22
		C639.71,232.22,639.71,232.22,639.71,232.22c-0.01,0-0.02,0-0.03,0c-0.15,0-0.27,0-0.37,0.01
		C639.45,232.22,639.58,232.22,639.71,232.22z M639.68,232.22C639.68,232.22,639.68,232.22,639.68,232.22c-0.02,0-0.03,0-0.05,0
		c-0.01,0-0.01,0-0.02,0C639.64,232.22,639.66,232.22,639.68,232.22z M639.63,232.22c0.01,0,0.03,0,0.04,0c-0.01,0-0.01,0-0.02,0
		c-0.04,0-0.08,0-0.13,0C639.56,232.22,639.59,232.22,639.63,232.22z M672.02,238.48c-0.12-0.51-6.26-2.45-7.23-2.53
		c-0.01,0.01-0.02,0.02-0.03,0.02c0.09,0.07,0.22,0.16,3.4,1.3C670.65,238.17,671.77,238.52,672.02,238.48z M639.52,232.22
		c0.04,0,0.08,0,0.13,0c-0.01,0-0.01,0-0.02,0c-0.09,0-0.18,0-0.27,0C639.41,232.22,639.47,232.22,639.52,232.22z M639.63,232.22
		c0,0-0.01,0-0.01,0c-0.18,0-0.36,0-0.53,0c0.08,0,0.18,0,0.27,0C639.45,232.22,639.54,232.22,639.63,232.22z M639.12,232.22
		c0.16,0,0.32,0,0.49,0C639.41,232.22,639.26,232.22,639.12,232.22z M636.95,232.25c0.43-0.01,1.02-0.02,1.79-0.03
		C637.79,232.23,637.11,232.25,636.95,232.25z M643.87,233.43c1.28,0.71,2.05,0.76,1.98,0.51c-0.12-0.43-2.1-1.09-2.74-1.12
		c-0.06,0-0.14,0.01-0.02,0.11C643.2,233.03,643.53,233.24,643.87,233.43z M639.74,232.22
		C639.74,232.22,639.74,232.22,639.74,232.22L639.74,232.22C639.74,232.22,639.74,232.22,639.74,232.22z M640.34,232.22
		c0.26,0,0.61,0.01,1.48,0.03C641.81,232.25,641.25,232.23,640.34,232.22z M649.8,234.04c-0.14-0.39-3.53-1.18-4.38-1.22
		c-0.01,0-0.02,0-0.03,0c0.05,0.05,0.05,0.05,1.83,0.61C648.08,233.7,649.69,234.21,649.8,234.04z M667.54,238.38
		c-0.38-0.62-5.06-2.35-6.29-2.43c-0.02,0-0.04,0-0.06,0.01c-0.01,0.01-0.01,0.03-0.02,0.04c0.23,0.24,1.93,0.97,2.65,1.27
		C666.51,238.4,667.73,238.68,667.54,238.38z M639.74,232.22L639.74,232.22C639.74,232.22,639.74,232.22,639.74,232.22
		C639.74,232.22,639.74,232.22,639.74,232.22z M658.49,237.27c2.06,1.09,3.59,1.46,3.48,1.04c-0.18-0.69-3.9-2.3-5.15-2.37
		c-0.11,0.01-0.29,0.02-0.03,0.26C657.04,236.45,657.69,236.85,658.49,237.27z M639.74,232.22c0.01,0,0.02,0,0.02,0c0,0,0,0,0,0
		c-0.01,0-0.03,0-0.04,0C639.73,232.22,639.73,232.22,639.74,232.22C639.74,232.22,639.74,232.22,639.74,232.22z M650.15,233.43
		c2.66,0.61,2.88,0.66,3.1,0.64c0-0.01,0-0.02,0-0.03c-0.7-0.41-4.84-1.17-5.82-1.22c0.04,0.03,0.04,0.03,0.59,0.14
		C648.61,233.08,649.17,233.2,650.15,233.43z M656.18,234.07c-0.18-0.28-5.79-1.19-7.05-1.26c1.16,0.3,2.36,0.39,3.53,0.61
		C656.11,234.07,656.11,234.07,656.18,234.07z M639.78,232.22c0.12,0,0.23,0,0.33,0c-0.09,0-0.15,0-0.19,0c-0.05,0-0.1,0-0.15,0
		C639.77,232.22,639.77,232.22,639.78,232.22z M639.76,232.22c0.05,0,0.1,0,0.15,0c-0.01,0-0.02,0-0.03,0
		C639.84,232.22,639.8,232.22,639.76,232.22C639.76,232.22,639.76,232.22,639.76,232.22z M639.88,232.22c0.16,0,0.32,0,0.46,0
		c-0.18,0-0.32,0-0.54,0c-0.02,0-0.05,0-0.07,0c0.02,0,0.04,0,0.06,0C639.82,232.22,639.85,232.22,639.88,232.22z M639.76,232.22
		c0.04,0,0.08,0,0.12,0c-0.03,0-0.06,0-0.1,0c-0.02,0-0.04,0-0.06,0C639.73,232.22,639.75,232.22,639.76,232.22
		C639.76,232.22,639.76,232.22,639.76,232.22z M640.24,232.22c0.21,0.01,0.53,0.01,1.1,0.03c0,0-0.55-0.03-1.43-0.04
		c0.05,0,0.1,0,0.19,0C640.15,232.22,640.19,232.22,640.24,232.22z M639.78,232.22c0.01,0,0.03,0,0.04,0c0.05,0,0.09,0,0.13,0
		c0.28,0.01,0.56,0.02,0.84,0.03c-0.01,0-0.22-0.02-0.56-0.03c-0.04,0-0.08,0-0.13,0C640.01,232.22,639.9,232.22,639.78,232.22z
		 M639.76,232.22c-0.01,0-0.02,0-0.03,0c0,0,0,0,0,0c0,0,0,0,0,0c0.01,0,0.02,0,0.04,0C639.77,232.22,639.77,232.22,639.76,232.22z
		 M639.78,232.22c-0.01,0-0.02,0-0.04,0c0,0,0,0,0.01,0c0.03,0,0.05,0,0.07,0C639.8,232.22,639.79,232.22,639.78,232.22z
		 M639.75,232.22c0.1,0,0.17,0.01,0.31,0.02c0.05,0.01,0.09,0.02,0.14,0.01c-0.02-0.01-0.1-0.02-0.24-0.03c-0.04,0-0.09,0-0.13,0
		C639.79,232.22,639.77,232.22,639.75,232.22z M639.76,232.22c-0.01,0-0.02,0-0.02,0C639.75,232.22,639.76,232.22,639.76,232.22
		C639.76,232.22,639.76,232.22,639.76,232.22z"/>
</g>
</svg>
